<?xml version="1.0" encoding="UTF-8" standalone="no"?>
<!DOCTYPE svg PUBLIC "-//W3C//DTD SVG 1.1//EN"
 "http://www.w3.org/Graphics/SVG/1.1/DTD/svg11.dtd">
<!-- Generated by graphviz version 2.40.1 (0)
 -->
<!-- Title: TenTauSeedRooted Pages: 1 -->
<svg width="238pt" height="1718pt"
 viewBox="0.00 0.00 238.09 1718.00" xmlns="http://www.w3.org/2000/svg" xmlns:xlink="http://www.w3.org/1999/xlink">
<g id="graph0" class="graph" transform="scale(1 1) rotate(0) translate(4 1714)">
<title>TenTauSeedRooted</title>
<polygon fill="#ffffff" stroke="transparent" points="-4,4 -4,-1714 234.0936,-1714 234.0936,4 -4,4"/>
<!-- p0 -->
<g id="node1" class="node">
<title>p0</title>
<ellipse fill="#ffd700" stroke="#000000" cx="25.0468" cy="-99" rx="21.0862" ry="21.0862"/>
<ellipse fill="none" stroke="#000000" cx="25.0468" cy="-99" rx="25.0937" ry="25.0937"/>
<text text-anchor="middle" x="25.0468" y="-96.2" font-family="Helvetica,sans-Serif" font-size="11.00" fill="#000000">tau</text>
</g>
<!-- p34 -->
<g id="node35" class="node">
<title>p34</title>
<ellipse fill="#ffffff" stroke="#000000" cx="113.0936" cy="-180" rx="27" ry="18"/>
<text text-anchor="middle" x="113.0936" y="-177.2" font-family="Helvetica,sans-Serif" font-size="11.00" fill="#000000">nu</text>
</g>
<!-- p0&#45;&gt;p34 -->
<g id="edge1" class="edge">
<title>p0&#45;&gt;p34</title>
<path fill="none" stroke="#999999" d="M43.7193,-116.178C58.2076,-129.5068 78.253,-147.9478 93.0721,-161.5809"/>
<polygon fill="#999999" stroke="#999999" points="92.2398,-163.1931 97.1044,-165.2904 94.6095,-160.6173 92.2398,-163.1931"/>
</g>
<!-- p35 -->
<g id="node36" class="node">
<title>p35</title>
<ellipse fill="#ffffff" stroke="#000000" cx="113.0936" cy="-126" rx="27" ry="18"/>
<text text-anchor="middle" x="113.0936" y="-123.2" font-family="Helvetica,sans-Serif" font-size="11.00" fill="#000000">pi</text>
</g>
<!-- p0&#45;&gt;p35 -->
<g id="edge2" class="edge">
<title>p0&#45;&gt;p35</title>
<path fill="none" stroke="#999999" d="M49.106,-106.3779C59.7029,-109.6275 72.2578,-113.4775 83.4279,-116.9028"/>
<polygon fill="#999999" stroke="#999999" points="83.1572,-118.6502 88.4506,-118.4431 84.1834,-115.304 83.1572,-118.6502"/>
</g>
<!-- p36 -->
<g id="node37" class="node">
<title>p36</title>
<ellipse fill="#ffffff" stroke="#000000" cx="113.0936" cy="-72" rx="27" ry="18"/>
<text text-anchor="middle" x="113.0936" y="-69.2" font-family="Helvetica,sans-Serif" font-size="11.00" fill="#000000">pi</text>
</g>
<!-- p0&#45;&gt;p36 -->
<g id="edge3" class="edge">
<title>p0&#45;&gt;p36</title>
<path fill="none" stroke="#999999" d="M49.106,-91.6221C59.7029,-88.3725 72.2578,-84.5225 83.4279,-81.0972"/>
<polygon fill="#999999" stroke="#999999" points="84.1834,-82.696 88.4506,-79.5569 83.1572,-79.3498 84.1834,-82.696"/>
</g>
<!-- p37 -->
<g id="node38" class="node">
<title>p37</title>
<ellipse fill="#ffffff" stroke="#000000" cx="113.0936" cy="-18" rx="27" ry="18"/>
<text text-anchor="middle" x="113.0936" y="-15.2" font-family="Helvetica,sans-Serif" font-size="11.00" fill="#000000">pi</text>
</g>
<!-- p0&#45;&gt;p37 -->
<g id="edge4" class="edge">
<title>p0&#45;&gt;p37</title>
<path fill="none" stroke="#999999" d="M43.7193,-81.822C58.2076,-68.4932 78.253,-50.0522 93.0721,-36.4191"/>
<polygon fill="#999999" stroke="#999999" points="94.6095,-37.3827 97.1044,-32.7096 92.2398,-34.8069 94.6095,-37.3827"/>
</g>
<!-- p1 -->
<g id="node2" class="node">
<title>p1</title>
<ellipse fill="#ffd700" stroke="#000000" cx="25.0468" cy="-288" rx="21.0862" ry="21.0862"/>
<ellipse fill="none" stroke="#000000" cx="25.0468" cy="-288" rx="25.0937" ry="25.0937"/>
<text text-anchor="middle" x="25.0468" y="-285.2" font-family="Helvetica,sans-Serif" font-size="11.00" fill="#000000">tau</text>
</g>
<!-- p31 -->
<g id="node32" class="node">
<title>p31</title>
<ellipse fill="#ffffff" stroke="#000000" cx="113.0936" cy="-342" rx="27" ry="18"/>
<text text-anchor="middle" x="113.0936" y="-339.2" font-family="Helvetica,sans-Serif" font-size="11.00" fill="#000000">nu</text>
</g>
<!-- p1&#45;&gt;p31 -->
<g id="edge5" class="edge">
<title>p1&#45;&gt;p31</title>
<path fill="none" stroke="#999999" d="M46.8112,-301.3483C59.5303,-309.1491 75.6134,-319.013 88.7516,-327.0708"/>
<polygon fill="#999999" stroke="#999999" points="87.908,-328.6063 93.0852,-329.7286 89.7379,-325.6227 87.908,-328.6063"/>
</g>
<!-- p32 -->
<g id="node33" class="node">
<title>p32</title>
<ellipse fill="#ffffff" stroke="#000000" cx="113.0936" cy="-288" rx="27" ry="18"/>
<text text-anchor="middle" x="113.0936" y="-285.2" font-family="Helvetica,sans-Serif" font-size="11.00" fill="#000000">pi0</text>
</g>
<!-- p1&#45;&gt;p32 -->
<g id="edge6" class="edge">
<title>p1&#45;&gt;p32</title>
<path fill="none" stroke="#999999" d="M50.5136,-288C59.942,-288 70.7603,-288 80.7211,-288"/>
<polygon fill="#999999" stroke="#999999" points="80.84,-289.7501 85.8399,-288 80.8399,-286.2501 80.84,-289.7501"/>
</g>
<!-- p33 -->
<g id="node34" class="node">
<title>p33</title>
<ellipse fill="#ffffff" stroke="#000000" cx="113.0936" cy="-234" rx="27" ry="18"/>
<text text-anchor="middle" x="113.0936" y="-231.2" font-family="Helvetica,sans-Serif" font-size="11.00" fill="#000000">pi</text>
</g>
<!-- p1&#45;&gt;p33 -->
<g id="edge7" class="edge">
<title>p1&#45;&gt;p33</title>
<path fill="none" stroke="#999999" d="M46.8112,-274.6517C59.5303,-266.8509 75.6134,-256.987 88.7516,-248.9292"/>
<polygon fill="#999999" stroke="#999999" points="89.7379,-250.3773 93.0852,-246.2714 87.908,-247.3937 89.7379,-250.3773"/>
</g>
<!-- p2 -->
<g id="node3" class="node">
<title>p2</title>
<ellipse fill="#ffd700" stroke="#000000" cx="25.0468" cy="-450" rx="21.0862" ry="21.0862"/>
<ellipse fill="none" stroke="#000000" cx="25.0468" cy="-450" rx="25.0937" ry="25.0937"/>
<text text-anchor="middle" x="25.0468" y="-447.2" font-family="Helvetica,sans-Serif" font-size="11.00" fill="#000000">tau</text>
</g>
<!-- p10 -->
<g id="node11" class="node">
<title>p10</title>
<ellipse fill="#ffffff" stroke="#000000" cx="113.0936" cy="-504" rx="27" ry="18"/>
<text text-anchor="middle" x="113.0936" y="-501.2" font-family="Helvetica,sans-Serif" font-size="11.00" fill="#000000">nu</text>
</g>
<!-- p2&#45;&gt;p10 -->
<g id="edge11" class="edge">
<title>p2&#45;&gt;p10</title>
<path fill="none" stroke="#999999" d="M46.8112,-463.3483C59.5303,-471.1491 75.6134,-481.013 88.7516,-489.0708"/>
<polygon fill="#999999" stroke="#999999" points="87.908,-490.6063 93.0852,-491.7286 89.7379,-487.6227 87.908,-490.6063"/>
</g>
<!-- p11 -->
<g id="node12" class="node">
<title>p11</title>
<ellipse fill="#ffffff" stroke="#000000" cx="113.0936" cy="-450" rx="27" ry="18"/>
<text text-anchor="middle" x="113.0936" y="-447.2" font-family="Helvetica,sans-Serif" font-size="11.00" fill="#000000">e</text>
</g>
<!-- p2&#45;&gt;p11 -->
<g id="edge12" class="edge">
<title>p2&#45;&gt;p11</title>
<path fill="none" stroke="#999999" d="M50.5136,-450C59.942,-450 70.7603,-450 80.7211,-450"/>
<polygon fill="#999999" stroke="#999999" points="80.84,-451.7501 85.8399,-450 80.8399,-448.2501 80.84,-451.7501"/>
</g>
<!-- p12 -->
<g id="node13" class="node">
<title>p12</title>
<ellipse fill="#ffffff" stroke="#000000" cx="113.0936" cy="-396" rx="27" ry="18"/>
<text text-anchor="middle" x="113.0936" y="-393.2" font-family="Helvetica,sans-Serif" font-size="11.00" fill="#000000">nu</text>
</g>
<!-- p2&#45;&gt;p12 -->
<g id="edge13" class="edge">
<title>p2&#45;&gt;p12</title>
<path fill="none" stroke="#999999" d="M46.8112,-436.6517C59.5303,-428.8509 75.6134,-418.987 88.7516,-410.9292"/>
<polygon fill="#999999" stroke="#999999" points="89.7379,-412.3773 93.0852,-408.2714 87.908,-409.3937 89.7379,-412.3773"/>
</g>
<!-- p3 -->
<g id="node4" class="node">
<title>p3</title>
<ellipse fill="#ffd700" stroke="#000000" cx="25.0468" cy="-612" rx="21.0862" ry="21.0862"/>
<ellipse fill="none" stroke="#000000" cx="25.0468" cy="-612" rx="25.0937" ry="25.0937"/>
<text text-anchor="middle" x="25.0468" y="-609.2" font-family="Helvetica,sans-Serif" font-size="11.00" fill="#000000">tau</text>
</g>
<!-- p13 -->
<g id="node14" class="node">
<title>p13</title>
<ellipse fill="#ffffff" stroke="#000000" cx="113.0936" cy="-666" rx="27" ry="18"/>
<text text-anchor="middle" x="113.0936" y="-663.2" font-family="Helvetica,sans-Serif" font-size="11.00" fill="#000000">nu</text>
</g>
<!-- p3&#45;&gt;p13 -->
<g id="edge16" class="edge">
<title>p3&#45;&gt;p13</title>
<path fill="none" stroke="#999999" d="M46.8112,-625.3483C59.5303,-633.1491 75.6134,-643.013 88.7516,-651.0708"/>
<polygon fill="#999999" stroke="#999999" points="87.908,-652.6063 93.0852,-653.7286 89.7379,-649.6227 87.908,-652.6063"/>
</g>
<!-- p14 -->
<g id="node15" class="node">
<title>p14</title>
<ellipse fill="#ffffff" stroke="#000000" cx="113.0936" cy="-612" rx="27" ry="18"/>
<text text-anchor="middle" x="113.0936" y="-609.2" font-family="Helvetica,sans-Serif" font-size="11.00" fill="#000000">K0</text>
</g>
<!-- p3&#45;&gt;p14 -->
<g id="edge17" class="edge">
<title>p3&#45;&gt;p14</title>
<path fill="none" stroke="#999999" d="M50.5136,-612C59.942,-612 70.7603,-612 80.7211,-612"/>
<polygon fill="#999999" stroke="#999999" points="80.84,-613.7501 85.8399,-612 80.8399,-610.2501 80.84,-613.7501"/>
</g>
<!-- p15 -->
<g id="node16" class="node">
<title>p15</title>
<ellipse fill="#ffffff" stroke="#000000" cx="113.0936" cy="-558" rx="27" ry="18"/>
<text text-anchor="middle" x="113.0936" y="-555.2" font-family="Helvetica,sans-Serif" font-size="11.00" fill="#000000">K</text>
</g>
<!-- p3&#45;&gt;p15 -->
<g id="edge18" class="edge">
<title>p3&#45;&gt;p15</title>
<path fill="none" stroke="#999999" d="M46.8112,-598.6517C59.5303,-590.8509 75.6134,-580.987 88.7516,-572.9292"/>
<polygon fill="#999999" stroke="#999999" points="89.7379,-574.3773 93.0852,-570.2714 87.908,-571.3937 89.7379,-574.3773"/>
</g>
<!-- p4 -->
<g id="node5" class="node">
<title>p4</title>
<ellipse fill="#ffd700" stroke="#000000" cx="25.0468" cy="-747" rx="21.0862" ry="21.0862"/>
<ellipse fill="none" stroke="#000000" cx="25.0468" cy="-747" rx="25.0937" ry="25.0937"/>
<text text-anchor="middle" x="25.0468" y="-744.2" font-family="Helvetica,sans-Serif" font-size="11.00" fill="#000000">tau</text>
</g>
<!-- p16 -->
<g id="node17" class="node">
<title>p16</title>
<ellipse fill="#ffffff" stroke="#000000" cx="113.0936" cy="-774" rx="27" ry="18"/>
<text text-anchor="middle" x="113.0936" y="-771.2" font-family="Helvetica,sans-Serif" font-size="11.00" fill="#000000">nu</text>
</g>
<!-- p4&#45;&gt;p16 -->
<g id="edge21" class="edge">
<title>p4&#45;&gt;p16</title>
<path fill="none" stroke="#999999" d="M49.106,-754.3779C59.7029,-757.6275 72.2578,-761.4775 83.4279,-764.9028"/>
<polygon fill="#999999" stroke="#999999" points="83.1572,-766.6502 88.4506,-766.4431 84.1834,-763.304 83.1572,-766.6502"/>
</g>
<!-- p17 -->
<g id="node18" class="node">
<title>p17</title>
<ellipse fill="#ffffff" stroke="#000000" cx="113.0936" cy="-720" rx="27" ry="18"/>
<text text-anchor="middle" x="113.0936" y="-717.2" font-family="Helvetica,sans-Serif" font-size="11.00" fill="#000000">pi</text>
</g>
<!-- p4&#45;&gt;p17 -->
<g id="edge22" class="edge">
<title>p4&#45;&gt;p17</title>
<path fill="none" stroke="#999999" d="M49.106,-739.6221C59.7029,-736.3725 72.2578,-732.5225 83.4279,-729.0972"/>
<polygon fill="#999999" stroke="#999999" points="84.1834,-730.696 88.4506,-727.5569 83.1572,-727.3498 84.1834,-730.696"/>
</g>
<!-- p5 -->
<g id="node6" class="node">
<title>p5</title>
<ellipse fill="#ffd700" stroke="#000000" cx="25.0468" cy="-936" rx="21.0862" ry="21.0862"/>
<ellipse fill="none" stroke="#000000" cx="25.0468" cy="-936" rx="25.0937" ry="25.0937"/>
<text text-anchor="middle" x="25.0468" y="-933.2" font-family="Helvetica,sans-Serif" font-size="11.00" fill="#000000">tau</text>
</g>
<!-- p18 -->
<g id="node19" class="node">
<title>p18</title>
<ellipse fill="#ffffff" stroke="#000000" cx="113.0936" cy="-1044" rx="27" ry="18"/>
<text text-anchor="middle" x="113.0936" y="-1041.2" font-family="Helvetica,sans-Serif" font-size="11.00" fill="#000000">nu</text>
</g>
<!-- p5&#45;&gt;p18 -->
<g id="edge23" class="edge">
<title>p5&#45;&gt;p18</title>
<path fill="none" stroke="#999999" d="M39.345,-956.5835C51.2632,-973.3324 68.9951,-997.3318 86.0936,-1017 88.5455,-1019.8204 91.2269,-1022.708 93.9178,-1025.4963"/>
<polygon fill="#999999" stroke="#999999" points="92.8216,-1026.8779 97.5724,-1029.2215 95.32,-1024.4268 92.8216,-1026.8779"/>
</g>
<!-- p19 -->
<g id="node20" class="node">
<title>p19</title>
<ellipse fill="#ffffff" stroke="#000000" cx="113.0936" cy="-990" rx="27" ry="18"/>
<text text-anchor="middle" x="113.0936" y="-987.2" font-family="Helvetica,sans-Serif" font-size="11.00" fill="#000000">pi0</text>
</g>
<!-- p5&#45;&gt;p19 -->
<g id="edge24" class="edge">
<title>p5&#45;&gt;p19</title>
<path fill="none" stroke="#999999" d="M46.8112,-949.3483C59.5303,-957.1491 75.6134,-967.013 88.7516,-975.0708"/>
<polygon fill="#999999" stroke="#999999" points="87.908,-976.6063 93.0852,-977.7286 89.7379,-973.6227 87.908,-976.6063"/>
</g>
<!-- p20 -->
<g id="node21" class="node">
<title>p20</title>
<ellipse fill="#ffffff" stroke="#000000" cx="113.0936" cy="-936" rx="27" ry="18"/>
<text text-anchor="middle" x="113.0936" y="-933.2" font-family="Helvetica,sans-Serif" font-size="11.00" fill="#000000">pi</text>
</g>
<!-- p5&#45;&gt;p20 -->
<g id="edge25" class="edge">
<title>p5&#45;&gt;p20</title>
<path fill="none" stroke="#999999" d="M50.5136,-936C59.942,-936 70.7603,-936 80.7211,-936"/>
<polygon fill="#999999" stroke="#999999" points="80.84,-937.7501 85.8399,-936 80.8399,-934.2501 80.84,-937.7501"/>
</g>
<!-- p21 -->
<g id="node22" class="node">
<title>p21</title>
<ellipse fill="#ffffff" stroke="#000000" cx="113.0936" cy="-882" rx="27" ry="18"/>
<text text-anchor="middle" x="113.0936" y="-879.2" font-family="Helvetica,sans-Serif" font-size="11.00" fill="#000000">pi</text>
</g>
<!-- p5&#45;&gt;p21 -->
<g id="edge26" class="edge">
<title>p5&#45;&gt;p21</title>
<path fill="none" stroke="#999999" d="M46.8112,-922.6517C59.5303,-914.8509 75.6134,-904.987 88.7516,-896.9292"/>
<polygon fill="#999999" stroke="#999999" points="89.7379,-898.3773 93.0852,-894.2714 87.908,-895.3937 89.7379,-898.3773"/>
</g>
<!-- p22 -->
<g id="node23" class="node">
<title>p22</title>
<ellipse fill="#ffffff" stroke="#000000" cx="113.0936" cy="-828" rx="27" ry="18"/>
<text text-anchor="middle" x="113.0936" y="-825.2" font-family="Helvetica,sans-Serif" font-size="11.00" fill="#000000">pi</text>
</g>
<!-- p5&#45;&gt;p22 -->
<g id="edge27" class="edge">
<title>p5&#45;&gt;p22</title>
<path fill="none" stroke="#999999" d="M39.345,-915.4165C51.2632,-898.6676 68.9951,-874.6682 86.0936,-855 88.5455,-852.1796 91.2269,-849.292 93.9178,-846.5037"/>
<polygon fill="#999999" stroke="#999999" points="95.32,-847.5732 97.5724,-842.7785 92.8216,-845.1221 95.32,-847.5732"/>
</g>
<!-- p6 -->
<g id="node7" class="node">
<title>p6</title>
<ellipse fill="#ffd700" stroke="#000000" cx="25.0468" cy="-1152" rx="21.0862" ry="21.0862"/>
<ellipse fill="none" stroke="#000000" cx="25.0468" cy="-1152" rx="25.0937" ry="25.0937"/>
<text text-anchor="middle" x="25.0468" y="-1149.2" font-family="Helvetica,sans-Serif" font-size="11.00" fill="#000000">tau</text>
</g>
<!-- p23 -->
<g id="node24" class="node">
<title>p23</title>
<ellipse fill="#ffffff" stroke="#000000" cx="113.0936" cy="-1206" rx="27" ry="18"/>
<text text-anchor="middle" x="113.0936" y="-1203.2" font-family="Helvetica,sans-Serif" font-size="11.00" fill="#000000">nu</text>
</g>
<!-- p6&#45;&gt;p23 -->
<g id="edge28" class="edge">
<title>p6&#45;&gt;p23</title>
<path fill="none" stroke="#999999" d="M46.8112,-1165.3483C59.5303,-1173.1491 75.6134,-1183.013 88.7516,-1191.0708"/>
<polygon fill="#999999" stroke="#999999" points="87.908,-1192.6063 93.0852,-1193.7286 89.7379,-1189.6227 87.908,-1192.6063"/>
</g>
<!-- p24 -->
<g id="node25" class="node">
<title>p24</title>
<ellipse fill="#ffffff" stroke="#000000" cx="113.0936" cy="-1152" rx="27" ry="18"/>
<text text-anchor="middle" x="113.0936" y="-1149.2" font-family="Helvetica,sans-Serif" font-size="11.00" fill="#000000">pi0</text>
</g>
<!-- p6&#45;&gt;p24 -->
<g id="edge29" class="edge">
<title>p6&#45;&gt;p24</title>
<path fill="none" stroke="#999999" d="M50.5136,-1152C59.942,-1152 70.7603,-1152 80.7211,-1152"/>
<polygon fill="#999999" stroke="#999999" points="80.84,-1153.7501 85.8399,-1152 80.8399,-1150.2501 80.84,-1153.7501"/>
</g>
<!-- p25 -->
<g id="node26" class="node">
<title>p25</title>
<ellipse fill="#ffffff" stroke="#000000" cx="113.0936" cy="-1098" rx="27" ry="18"/>
<text text-anchor="middle" x="113.0936" y="-1095.2" font-family="Helvetica,sans-Serif" font-size="11.00" fill="#000000">pi</text>
</g>
<!-- p6&#45;&gt;p25 -->
<g id="edge30" class="edge">
<title>p6&#45;&gt;p25</title>
<path fill="none" stroke="#999999" d="M46.8112,-1138.6517C59.5303,-1130.8509 75.6134,-1120.987 88.7516,-1112.9292"/>
<polygon fill="#999999" stroke="#999999" points="89.7379,-1114.3773 93.0852,-1110.2714 87.908,-1111.3937 89.7379,-1114.3773"/>
</g>
<!-- p7 -->
<g id="node8" class="node">
<title>p7</title>
<ellipse fill="#ffd700" stroke="#000000" cx="25.0468" cy="-1314" rx="21.0862" ry="21.0862"/>
<ellipse fill="none" stroke="#000000" cx="25.0468" cy="-1314" rx="25.0937" ry="25.0937"/>
<text text-anchor="middle" x="25.0468" y="-1311.2" font-family="Helvetica,sans-Serif" font-size="11.00" fill="#000000">tau</text>
</g>
<!-- p26 -->
<g id="node27" class="node">
<title>p26</title>
<ellipse fill="#ffffff" stroke="#000000" cx="113.0936" cy="-1368" rx="27" ry="18"/>
<text text-anchor="middle" x="113.0936" y="-1365.2" font-family="Helvetica,sans-Serif" font-size="11.00" fill="#000000">nu</text>
</g>
<!-- p7&#45;&gt;p26 -->
<g id="edge31" class="edge">
<title>p7&#45;&gt;p26</title>
<path fill="none" stroke="#999999" d="M46.8112,-1327.3483C59.5303,-1335.1491 75.6134,-1345.013 88.7516,-1353.0708"/>
<polygon fill="#999999" stroke="#999999" points="87.908,-1354.6063 93.0852,-1355.7286 89.7379,-1351.6227 87.908,-1354.6063"/>
</g>
<!-- p27 -->
<g id="node28" class="node">
<title>p27</title>
<ellipse fill="#ffffff" stroke="#000000" cx="113.0936" cy="-1314" rx="27" ry="18"/>
<text text-anchor="middle" x="113.0936" y="-1311.2" font-family="Helvetica,sans-Serif" font-size="11.00" fill="#000000">mu</text>
</g>
<!-- p7&#45;&gt;p27 -->
<g id="edge32" class="edge">
<title>p7&#45;&gt;p27</title>
<path fill="none" stroke="#999999" d="M50.5136,-1314C59.942,-1314 70.7603,-1314 80.7211,-1314"/>
<polygon fill="#999999" stroke="#999999" points="80.84,-1315.7501 85.8399,-1314 80.8399,-1312.2501 80.84,-1315.7501"/>
</g>
<!-- p28 -->
<g id="node29" class="node">
<title>p28</title>
<ellipse fill="#ffffff" stroke="#000000" cx="113.0936" cy="-1260" rx="27" ry="18"/>
<text text-anchor="middle" x="113.0936" y="-1257.2" font-family="Helvetica,sans-Serif" font-size="11.00" fill="#000000">nu</text>
</g>
<!-- p7&#45;&gt;p28 -->
<g id="edge33" class="edge">
<title>p7&#45;&gt;p28</title>
<path fill="none" stroke="#999999" d="M46.8112,-1300.6517C59.5303,-1292.8509 75.6134,-1282.987 88.7516,-1274.9292"/>
<polygon fill="#999999" stroke="#999999" points="89.7379,-1276.3773 93.0852,-1272.2714 87.908,-1273.3937 89.7379,-1276.3773"/>
</g>
<!-- p8 -->
<g id="node9" class="node">
<title>p8</title>
<ellipse fill="#ffd700" stroke="#000000" cx="25.0468" cy="-1449" rx="21.0862" ry="21.0862"/>
<ellipse fill="none" stroke="#000000" cx="25.0468" cy="-1449" rx="25.0937" ry="25.0937"/>
<text text-anchor="middle" x="25.0468" y="-1446.2" font-family="Helvetica,sans-Serif" font-size="11.00" fill="#000000">tau</text>
</g>
<!-- p29 -->
<g id="node30" class="node">
<title>p29</title>
<ellipse fill="#ffffff" stroke="#000000" cx="113.0936" cy="-1476" rx="27" ry="18"/>
<text text-anchor="middle" x="113.0936" y="-1473.2" font-family="Helvetica,sans-Serif" font-size="11.00" fill="#000000">nu</text>
</g>
<!-- p8&#45;&gt;p29 -->
<g id="edge34" class="edge">
<title>p8&#45;&gt;p29</title>
<path fill="none" stroke="#999999" d="M49.106,-1456.3779C59.7029,-1459.6275 72.2578,-1463.4775 83.4279,-1466.9028"/>
<polygon fill="#999999" stroke="#999999" points="83.1572,-1468.6502 88.4506,-1468.4431 84.1834,-1465.304 83.1572,-1468.6502"/>
</g>
<!-- p30 -->
<g id="node31" class="node">
<title>p30</title>
<ellipse fill="#ffffff" stroke="#000000" cx="113.0936" cy="-1422" rx="27" ry="18"/>
<text text-anchor="middle" x="113.0936" y="-1419.2" font-family="Helvetica,sans-Serif" font-size="11.00" fill="#000000">pi</text>
</g>
<!-- p8&#45;&gt;p30 -->
<g id="edge35" class="edge">
<title>p8&#45;&gt;p30</title>
<path fill="none" stroke="#999999" d="M49.106,-1441.6221C59.7029,-1438.3725 72.2578,-1434.5225 83.4279,-1431.0972"/>
<polygon fill="#999999" stroke="#999999" points="84.1834,-1432.696 88.4506,-1429.5569 83.1572,-1429.3498 84.1834,-1432.696"/>
</g>
<!-- p9 -->
<g id="node10" class="node">
<title>p9</title>
<ellipse fill="#ffd700" stroke="#000000" cx="25.0468" cy="-1611" rx="21.0862" ry="21.0862"/>
<ellipse fill="none" stroke="#000000" cx="25.0468" cy="-1611" rx="25.0937" ry="25.0937"/>
<text text-anchor="middle" x="25.0468" y="-1608.2" font-family="Helvetica,sans-Serif" font-size="11.00" fill="#000000">tau</text>
</g>
<!-- p38 -->
<g id="node39" class="node">
<title>p38</title>
<ellipse fill="#ffffff" stroke="#000000" cx="113.0936" cy="-1692" rx="27" ry="18"/>
<text text-anchor="middle" x="113.0936" y="-1689.2" font-family="Helvetica,sans-Serif" font-size="11.00" fill="#000000">nu</text>
</g>
<!-- p9&#45;&gt;p38 -->
<g id="edge36" class="edge">
<title>p9&#45;&gt;p38</title>
<path fill="none" stroke="#999999" d="M43.7193,-1628.178C58.2076,-1641.5068 78.253,-1659.9478 93.0721,-1673.5809"/>
<polygon fill="#999999" stroke="#999999" points="92.2398,-1675.1931 97.1044,-1677.2904 94.6095,-1672.6173 92.2398,-1675.1931"/>
</g>
<!-- p39 -->
<g id="node40" class="node">
<title>p39</title>
<ellipse fill="#ffffff" stroke="#000000" cx="113.0936" cy="-1638" rx="27" ry="18"/>
<text text-anchor="middle" x="113.0936" y="-1635.2" font-family="Helvetica,sans-Serif" font-size="11.00" fill="#000000">pi</text>
</g>
<!-- p9&#45;&gt;p39 -->
<g id="edge37" class="edge">
<title>p9&#45;&gt;p39</title>
<path fill="none" stroke="#999999" d="M49.106,-1618.3779C59.7029,-1621.6275 72.2578,-1625.4775 83.4279,-1628.9028"/>
<polygon fill="#999999" stroke="#999999" points="83.1572,-1630.6502 88.4506,-1630.4431 84.1834,-1627.304 83.1572,-1630.6502"/>
</g>
<!-- p40 -->
<g id="node41" class="node">
<title>p40</title>
<ellipse fill="#ffffff" stroke="#000000" cx="113.0936" cy="-1584" rx="27" ry="18"/>
<text text-anchor="middle" x="113.0936" y="-1581.2" font-family="Helvetica,sans-Serif" font-size="11.00" fill="#000000">pi</text>
</g>
<!-- p9&#45;&gt;p40 -->
<g id="edge38" class="edge">
<title>p9&#45;&gt;p40</title>
<path fill="none" stroke="#999999" d="M49.106,-1603.6221C59.7029,-1600.3725 72.2578,-1596.5225 83.4279,-1593.0972"/>
<polygon fill="#999999" stroke="#999999" points="84.1834,-1594.696 88.4506,-1591.5569 83.1572,-1591.3498 84.1834,-1594.696"/>
</g>
<!-- p41 -->
<g id="node42" class="node">
<title>p41</title>
<ellipse fill="#ffffff" stroke="#000000" cx="113.0936" cy="-1530" rx="27" ry="18"/>
<text text-anchor="middle" x="113.0936" y="-1527.2" font-family="Helvetica,sans-Serif" font-size="11.00" fill="#000000">pi</text>
</g>
<!-- p9&#45;&gt;p41 -->
<g id="edge39" class="edge">
<title>p9&#45;&gt;p41</title>
<path fill="none" stroke="#999999" d="M43.7193,-1593.822C58.2076,-1580.4932 78.253,-1562.0522 93.0721,-1548.4191"/>
<polygon fill="#999999" stroke="#999999" points="94.6095,-1549.3827 97.1044,-1544.7096 92.2398,-1546.8069 94.6095,-1549.3827"/>
</g>
<!-- p42 -->
<g id="node43" class="node">
<title>p42</title>
<ellipse fill="#ffffff" stroke="#000000" cx="203.0936" cy="-612" rx="27" ry="18"/>
<text text-anchor="middle" x="203.0936" y="-609.2" font-family="Helvetica,sans-Serif" font-size="11.00" fill="#000000">K0L</text>
</g>
<!-- p14&#45;&gt;p42 -->
<g id="edge8" class="edge">
<title>p14&#45;&gt;p42</title>
<path fill="none" stroke="#999999" d="M140.0966,-612C149.7086,-612 160.6322,-612 170.6527,-612"/>
<polygon fill="#999999" stroke="#999999" points="170.7987,-613.7501 175.7987,-612 170.7986,-610.2501 170.7987,-613.7501"/>
</g>
<!-- p43 -->
<g id="node44" class="node">
<title>p43</title>
<ellipse fill="#ffffff" stroke="#000000" cx="203.0936" cy="-1017" rx="27" ry="18"/>
<text text-anchor="middle" x="203.0936" y="-1014.2" font-family="Helvetica,sans-Serif" font-size="11.00" fill="#000000">gam</text>
</g>
<!-- p19&#45;&gt;p43 -->
<g id="edge9" class="edge">
<title>p19&#45;&gt;p43</title>
<path fill="none" stroke="#999999" d="M138.1637,-997.521C149.1773,-1000.8251 162.1868,-1004.728 173.6576,-1008.1692"/>
<polygon fill="#999999" stroke="#999999" points="173.1771,-1009.852 178.4691,-1009.6126 174.1829,-1006.4996 173.1771,-1009.852"/>
</g>
<!-- p44 -->
<g id="node45" class="node">
<title>p44</title>
<ellipse fill="#ffffff" stroke="#000000" cx="203.0936" cy="-963" rx="27" ry="18"/>
<text text-anchor="middle" x="203.0936" y="-960.2" font-family="Helvetica,sans-Serif" font-size="11.00" fill="#000000">gam</text>
</g>
<!-- p19&#45;&gt;p44 -->
<g id="edge10" class="edge">
<title>p19&#45;&gt;p44</title>
<path fill="none" stroke="#999999" d="M138.1637,-982.479C149.1773,-979.1749 162.1868,-975.272 173.6576,-971.8308"/>
<polygon fill="#999999" stroke="#999999" points="174.1829,-973.5004 178.4691,-970.3874 173.1771,-970.148 174.1829,-973.5004"/>
</g>
<!-- p45 -->
<g id="node46" class="node">
<title>p45</title>
<ellipse fill="#ffffff" stroke="#000000" cx="203.0936" cy="-1179" rx="27" ry="18"/>
<text text-anchor="middle" x="203.0936" y="-1176.2" font-family="Helvetica,sans-Serif" font-size="11.00" fill="#000000">gam</text>
</g>
<!-- p24&#45;&gt;p45 -->
<g id="edge14" class="edge">
<title>p24&#45;&gt;p45</title>
<path fill="none" stroke="#999999" d="M138.1637,-1159.521C149.1773,-1162.8251 162.1868,-1166.728 173.6576,-1170.1692"/>
<polygon fill="#999999" stroke="#999999" points="173.1771,-1171.852 178.4691,-1171.6126 174.1829,-1168.4996 173.1771,-1171.852"/>
</g>
<!-- p46 -->
<g id="node47" class="node">
<title>p46</title>
<ellipse fill="#ffffff" stroke="#000000" cx="203.0936" cy="-1125" rx="27" ry="18"/>
<text text-anchor="middle" x="203.0936" y="-1122.2" font-family="Helvetica,sans-Serif" font-size="11.00" fill="#000000">gam</text>
</g>
<!-- p24&#45;&gt;p46 -->
<g id="edge15" class="edge">
<title>p24&#45;&gt;p46</title>
<path fill="none" stroke="#999999" d="M138.1637,-1144.479C149.1773,-1141.1749 162.1868,-1137.272 173.6576,-1133.8308"/>
<polygon fill="#999999" stroke="#999999" points="174.1829,-1135.5004 178.4691,-1132.3874 173.1771,-1132.148 174.1829,-1135.5004"/>
</g>
<!-- p47 -->
<g id="node48" class="node">
<title>p47</title>
<ellipse fill="#ffffff" stroke="#000000" cx="203.0936" cy="-315" rx="27" ry="18"/>
<text text-anchor="middle" x="203.0936" y="-312.2" font-family="Helvetica,sans-Serif" font-size="11.00" fill="#000000">gam</text>
</g>
<!-- p32&#45;&gt;p47 -->
<g id="edge19" class="edge">
<title>p32&#45;&gt;p47</title>
<path fill="none" stroke="#999999" d="M138.1637,-295.521C149.1773,-298.8251 162.1868,-302.728 173.6576,-306.1692"/>
<polygon fill="#999999" stroke="#999999" points="173.1771,-307.852 178.4691,-307.6126 174.1829,-304.4996 173.1771,-307.852"/>
</g>
<!-- p48 -->
<g id="node49" class="node">
<title>p48</title>
<ellipse fill="#ffffff" stroke="#000000" cx="203.0936" cy="-261" rx="27" ry="18"/>
<text text-anchor="middle" x="203.0936" y="-258.2" font-family="Helvetica,sans-Serif" font-size="11.00" fill="#000000">gam</text>
</g>
<!-- p32&#45;&gt;p48 -->
<g id="edge20" class="edge">
<title>p32&#45;&gt;p48</title>
<path fill="none" stroke="#999999" d="M138.1637,-280.479C149.1773,-277.1749 162.1868,-273.272 173.6576,-269.8308"/>
<polygon fill="#999999" stroke="#999999" points="174.1829,-271.5004 178.4691,-268.3874 173.1771,-268.148 174.1829,-271.5004"/>
</g>
</g>
</svg>
