<?xml version="1.0" encoding="UTF-8" standalone="no"?>
<!DOCTYPE svg PUBLIC "-//W3C//DTD SVG 1.1//EN"
 "http://www.w3.org/Graphics/SVG/1.1/DTD/svg11.dtd">
<!-- Generated by graphviz version 2.40.1 (0)
 -->
<!-- Title: TenTauInteraction Pages: 1 -->
<svg width="477pt" height="1718pt"
 viewBox="0.00 0.00 477.09 1718.00" xmlns="http://www.w3.org/2000/svg" xmlns:xlink="http://www.w3.org/1999/xlink">
<g id="graph0" class="graph" transform="scale(1 1) rotate(0) translate(4 1714)">
<title>TenTauInteraction</title>
<polygon fill="#ffffff" stroke="transparent" points="-4,4 -4,-1714 473.0936,-1714 473.0936,4 -4,4"/>
<!-- INT -->
<g id="node1" class="node">
<title>INT</title>
<path fill="#ff6a6a" stroke="#000000" d="M81,-901C81,-901 12,-901 12,-901 6,-901 0,-895 0,-889 0,-889 0,-875 0,-875 0,-869 6,-863 12,-863 12,-863 81,-863 81,-863 87,-863 93,-869 93,-875 93,-875 93,-889 93,-889 93,-895 87,-901 81,-901"/>
<text text-anchor="middle" x="46.5" y="-885.8" font-family="Helvetica,sans-Serif" font-size="14.00" fill="#ffffff">SIGNAL</text>
<text text-anchor="middle" x="46.5" y="-870.8" font-family="Helvetica,sans-Serif" font-size="14.00" fill="#ffffff">interaction</text>
</g>
<!-- UP -->
<g id="node2" class="node">
<title>UP</title>
<path fill="#ffdead" stroke="#000000" d="M191,-900C191,-900 141,-900 141,-900 135,-900 129,-894 129,-888 129,-888 129,-876 129,-876 129,-870 135,-864 141,-864 141,-864 191,-864 191,-864 197,-864 203,-870 203,-876 203,-876 203,-888 203,-888 203,-894 197,-900 191,-900"/>
<text text-anchor="middle" x="166" y="-885.4" font-family="Helvetica,sans-Serif" font-size="12.00" fill="#000000">ISR /</text>
<text text-anchor="middle" x="166" y="-872.4" font-family="Helvetica,sans-Serif" font-size="12.00" fill="#000000">upstream</text>
</g>
<!-- INT&#45;&gt;UP -->
<g id="edge1" class="edge">
<title>INT&#45;&gt;UP</title>
<path fill="none" stroke="#cd5555" stroke-width="1.6" d="M93.044,-882C102.0755,-882 111.5307,-882 120.5272,-882"/>
<polygon fill="#cd5555" stroke="#cd5555" stroke-width="1.6" points="120.635,-884.8001 128.635,-882 120.635,-879.2001 120.635,-884.8001"/>
</g>
<!-- p0 -->
<g id="node3" class="node">
<title>p0</title>
<ellipse fill="#ffd700" stroke="#000000" cx="264.0468" cy="-1584" rx="21.0862" ry="21.0862"/>
<ellipse fill="none" stroke="#000000" cx="264.0468" cy="-1584" rx="25.0937" ry="25.0937"/>
<text text-anchor="middle" x="264.0468" y="-1581.2" font-family="Helvetica,sans-Serif" font-size="11.00" fill="#000000">tau</text>
</g>
<!-- UP&#45;&gt;p0 -->
<g id="edge2" class="edge">
<title>UP&#45;&gt;p0</title>
<path fill="none" stroke="#ff8c00" d="M168.274,-900.4418C176.8713,-969.8433 208.454,-1221.9018 239,-1429 245.2783,-1471.5663 253.3366,-1520.5685 258.593,-1551.8874"/>
<polygon fill="#ff8c00" stroke="#ff8c00" points="256.2233,-1552.5699 259.8008,-1559.0664 261.0554,-1551.7569 256.2233,-1552.5699"/>
</g>
<!-- p1 -->
<g id="node4" class="node">
<title>p1</title>
<ellipse fill="#ffd700" stroke="#000000" cx="264.0468" cy="-1395" rx="21.0862" ry="21.0862"/>
<ellipse fill="none" stroke="#000000" cx="264.0468" cy="-1395" rx="25.0937" ry="25.0937"/>
<text text-anchor="middle" x="264.0468" y="-1392.2" font-family="Helvetica,sans-Serif" font-size="11.00" fill="#000000">tau</text>
</g>
<!-- UP&#45;&gt;p1 -->
<g id="edge3" class="edge">
<title>UP&#45;&gt;p1</title>
<path fill="none" stroke="#ff8c00" d="M169.3832,-900.0478C179.7106,-955.0947 211.7819,-1125.7118 239,-1267 245.3036,-1299.7217 252.6369,-1337.122 257.7329,-1363.0084"/>
<polygon fill="#ff8c00" stroke="#ff8c00" points="255.3516,-1363.5964 259.1082,-1369.991 260.1592,-1362.6494 255.3516,-1363.5964"/>
</g>
<!-- p2 -->
<g id="node5" class="node">
<title>p2</title>
<ellipse fill="#ffd700" stroke="#000000" cx="264.0468" cy="-1233" rx="21.0862" ry="21.0862"/>
<ellipse fill="none" stroke="#000000" cx="264.0468" cy="-1233" rx="25.0937" ry="25.0937"/>
<text text-anchor="middle" x="264.0468" y="-1230.2" font-family="Helvetica,sans-Serif" font-size="11.00" fill="#000000">tau</text>
</g>
<!-- UP&#45;&gt;p2 -->
<g id="edge4" class="edge">
<title>UP&#45;&gt;p2</title>
<path fill="none" stroke="#ff8c00" d="M171.1334,-900.3771C186.9804,-957.1082 235.2629,-1129.9557 255.2449,-1201.4898"/>
<polygon fill="#ff8c00" stroke="#ff8c00" points="252.9581,-1202.4099 257.2011,-1208.4927 257.6774,-1201.0916 252.9581,-1202.4099"/>
</g>
<!-- p3 -->
<g id="node6" class="node">
<title>p3</title>
<ellipse fill="#ffd700" stroke="#000000" cx="264.0468" cy="-1071" rx="21.0862" ry="21.0862"/>
<ellipse fill="none" stroke="#000000" cx="264.0468" cy="-1071" rx="25.0937" ry="25.0937"/>
<text text-anchor="middle" x="264.0468" y="-1068.2" font-family="Helvetica,sans-Serif" font-size="11.00" fill="#000000">tau</text>
</g>
<!-- UP&#45;&gt;p3 -->
<g id="edge5" class="edge">
<title>UP&#45;&gt;p3</title>
<path fill="none" stroke="#ff8c00" d="M175.4011,-900.1221C192.4374,-932.962 228.5413,-1002.5578 249.0285,-1042.0499"/>
<polygon fill="#ff8c00" stroke="#ff8c00" points="247.0223,-1043.5033 252.4206,-1048.5887 251.3719,-1041.2468 247.0223,-1043.5033"/>
</g>
<!-- p4 -->
<g id="node7" class="node">
<title>p4</title>
<ellipse fill="#ffd700" stroke="#000000" cx="264.0468" cy="-936" rx="21.0862" ry="21.0862"/>
<ellipse fill="none" stroke="#000000" cx="264.0468" cy="-936" rx="25.0937" ry="25.0937"/>
<text text-anchor="middle" x="264.0468" y="-933.2" font-family="Helvetica,sans-Serif" font-size="11.00" fill="#000000">tau</text>
</g>
<!-- UP&#45;&gt;p4 -->
<g id="edge6" class="edge">
<title>UP&#45;&gt;p4</title>
<path fill="none" stroke="#ff8c00" d="M198.9209,-900.1314C210.8436,-906.6979 224.1957,-914.0517 235.6916,-920.3832"/>
<polygon fill="#ff8c00" stroke="#ff8c00" points="234.5529,-922.553 241.8664,-923.784 236.9168,-918.2609 234.5529,-922.553"/>
</g>
<!-- p5 -->
<g id="node8" class="node">
<title>p5</title>
<ellipse fill="#ffd700" stroke="#000000" cx="264.0468" cy="-801" rx="21.0862" ry="21.0862"/>
<ellipse fill="none" stroke="#000000" cx="264.0468" cy="-801" rx="25.0937" ry="25.0937"/>
<text text-anchor="middle" x="264.0468" y="-798.2" font-family="Helvetica,sans-Serif" font-size="11.00" fill="#000000">tau</text>
</g>
<!-- UP&#45;&gt;p5 -->
<g id="edge7" class="edge">
<title>UP&#45;&gt;p5</title>
<path fill="none" stroke="#ff8c00" d="M188.2483,-863.6198C203.3444,-851.1485 223.3267,-834.6403 238.9845,-821.7049"/>
<polygon fill="#ff8c00" stroke="#ff8c00" points="240.7042,-823.4622 244.5404,-817.115 237.5833,-819.6845 240.7042,-823.4622"/>
</g>
<!-- p6 -->
<g id="node9" class="node">
<title>p6</title>
<ellipse fill="#ffd700" stroke="#000000" cx="264.0468" cy="-585" rx="21.0862" ry="21.0862"/>
<ellipse fill="none" stroke="#000000" cx="264.0468" cy="-585" rx="25.0937" ry="25.0937"/>
<text text-anchor="middle" x="264.0468" y="-582.2" font-family="Helvetica,sans-Serif" font-size="11.00" fill="#000000">tau</text>
</g>
<!-- UP&#45;&gt;p6 -->
<g id="edge8" class="edge">
<title>UP&#45;&gt;p6</title>
<path fill="none" stroke="#ff8c00" d="M171.9857,-863.8684C188.2795,-814.5116 233.5661,-677.3312 253.9159,-615.6884"/>
<polygon fill="#ff8c00" stroke="#ff8c00" points="256.2865,-616.3225 256.1545,-608.9073 251.6335,-614.7864 256.2865,-616.3225"/>
</g>
<!-- p7 -->
<g id="node10" class="node">
<title>p7</title>
<ellipse fill="#ffd700" stroke="#000000" cx="264.0468" cy="-423" rx="21.0862" ry="21.0862"/>
<ellipse fill="none" stroke="#000000" cx="264.0468" cy="-423" rx="25.0937" ry="25.0937"/>
<text text-anchor="middle" x="264.0468" y="-420.2" font-family="Helvetica,sans-Serif" font-size="11.00" fill="#000000">tau</text>
</g>
<!-- UP&#45;&gt;p7 -->
<g id="edge9" class="edge">
<title>UP&#45;&gt;p7</title>
<path fill="none" stroke="#ff8c00" d="M169.9041,-863.7234C184.8152,-793.9177 238.2876,-543.5902 257.2881,-454.6404"/>
<polygon fill="#ff8c00" stroke="#ff8c00" points="259.6881,-455.1331 258.7545,-447.7757 254.8962,-454.1094 259.6881,-455.1331"/>
</g>
<!-- p8 -->
<g id="node11" class="node">
<title>p8</title>
<ellipse fill="#ffd700" stroke="#000000" cx="264.0468" cy="-288" rx="21.0862" ry="21.0862"/>
<ellipse fill="none" stroke="#000000" cx="264.0468" cy="-288" rx="25.0937" ry="25.0937"/>
<text text-anchor="middle" x="264.0468" y="-285.2" font-family="Helvetica,sans-Serif" font-size="11.00" fill="#000000">tau</text>
</g>
<!-- UP&#45;&gt;p8 -->
<g id="edge10" class="edge">
<title>UP&#45;&gt;p8</title>
<path fill="none" stroke="#ff8c00" d="M168.0329,-863.9854C175.4607,-799.3531 202.6109,-573.196 239,-389 243.6464,-365.4806 250.206,-339.2052 255.4467,-319.3509"/>
<polygon fill="#ff8c00" stroke="#ff8c00" points="257.8789,-319.7383 257.3119,-312.3436 253.1437,-318.4779 257.8789,-319.7383"/>
</g>
<!-- p9 -->
<g id="node12" class="node">
<title>p9</title>
<ellipse fill="#ffd700" stroke="#000000" cx="264.0468" cy="-126" rx="21.0862" ry="21.0862"/>
<ellipse fill="none" stroke="#000000" cx="264.0468" cy="-126" rx="25.0937" ry="25.0937"/>
<text text-anchor="middle" x="264.0468" y="-123.2" font-family="Helvetica,sans-Serif" font-size="11.00" fill="#000000">tau</text>
</g>
<!-- UP&#45;&gt;p9 -->
<g id="edge11" class="edge">
<title>UP&#45;&gt;p9</title>
<path fill="none" stroke="#ff8c00" d="M167.5819,-863.9463C174.2673,-788.8888 201.5917,-494.2275 239,-254 244.1273,-221.0735 251.6367,-183.7039 257.0951,-157.8805"/>
<polygon fill="#ff8c00" stroke="#ff8c00" points="259.5163,-158.2731 258.5766,-150.9165 254.7236,-157.2534 259.5163,-158.2731"/>
</g>
<!-- p34 -->
<g id="node37" class="node">
<title>p34</title>
<ellipse fill="#ffffff" stroke="#000000" cx="352.0936" cy="-1692" rx="27" ry="18"/>
<text text-anchor="middle" x="352.0936" y="-1689.2" font-family="Helvetica,sans-Serif" font-size="11.00" fill="#000000">nu</text>
</g>
<!-- p0&#45;&gt;p34 -->
<g id="edge12" class="edge">
<title>p0&#45;&gt;p34</title>
<path fill="none" stroke="#8c8c8c" d="M278.345,-1604.5835C290.2632,-1621.3324 307.9951,-1645.3318 325.0936,-1665 327.5455,-1667.8204 330.2269,-1670.708 332.9178,-1673.4963"/>
<polygon fill="#8c8c8c" stroke="#8c8c8c" points="331.8216,-1674.8779 336.5724,-1677.2215 334.32,-1672.4268 331.8216,-1674.8779"/>
</g>
<!-- p35 -->
<g id="node38" class="node">
<title>p35</title>
<ellipse fill="#ffffff" stroke="#000000" cx="352.0936" cy="-1638" rx="27" ry="18"/>
<text text-anchor="middle" x="352.0936" y="-1635.2" font-family="Helvetica,sans-Serif" font-size="11.00" fill="#000000">pi</text>
</g>
<!-- p0&#45;&gt;p35 -->
<g id="edge13" class="edge">
<title>p0&#45;&gt;p35</title>
<path fill="none" stroke="#8c8c8c" d="M285.8112,-1597.3483C298.5303,-1605.1491 314.6134,-1615.013 327.7516,-1623.0708"/>
<polygon fill="#8c8c8c" stroke="#8c8c8c" points="326.908,-1624.6063 332.0852,-1625.7286 328.7379,-1621.6227 326.908,-1624.6063"/>
</g>
<!-- p36 -->
<g id="node39" class="node">
<title>p36</title>
<ellipse fill="#ffffff" stroke="#000000" cx="352.0936" cy="-1584" rx="27" ry="18"/>
<text text-anchor="middle" x="352.0936" y="-1581.2" font-family="Helvetica,sans-Serif" font-size="11.00" fill="#000000">pi</text>
</g>
<!-- p0&#45;&gt;p36 -->
<g id="edge14" class="edge">
<title>p0&#45;&gt;p36</title>
<path fill="none" stroke="#8c8c8c" d="M289.5136,-1584C298.942,-1584 309.7603,-1584 319.7211,-1584"/>
<polygon fill="#8c8c8c" stroke="#8c8c8c" points="319.84,-1585.7501 324.8399,-1584 319.8399,-1582.2501 319.84,-1585.7501"/>
</g>
<!-- p37 -->
<g id="node40" class="node">
<title>p37</title>
<ellipse fill="#ffffff" stroke="#000000" cx="352.0936" cy="-1530" rx="27" ry="18"/>
<text text-anchor="middle" x="352.0936" y="-1527.2" font-family="Helvetica,sans-Serif" font-size="11.00" fill="#000000">pi</text>
</g>
<!-- p0&#45;&gt;p37 -->
<g id="edge15" class="edge">
<title>p0&#45;&gt;p37</title>
<path fill="none" stroke="#8c8c8c" d="M285.8112,-1570.6517C298.5303,-1562.8509 314.6134,-1552.987 327.7516,-1544.9292"/>
<polygon fill="#8c8c8c" stroke="#8c8c8c" points="328.7379,-1546.3773 332.0852,-1542.2714 326.908,-1543.3937 328.7379,-1546.3773"/>
</g>
<!-- p31 -->
<g id="node34" class="node">
<title>p31</title>
<ellipse fill="#ffffff" stroke="#000000" cx="352.0936" cy="-1476" rx="27" ry="18"/>
<text text-anchor="middle" x="352.0936" y="-1473.2" font-family="Helvetica,sans-Serif" font-size="11.00" fill="#000000">nu</text>
</g>
<!-- p1&#45;&gt;p31 -->
<g id="edge16" class="edge">
<title>p1&#45;&gt;p31</title>
<path fill="none" stroke="#8c8c8c" d="M282.7193,-1412.178C297.2076,-1425.5068 317.253,-1443.9478 332.0721,-1457.5809"/>
<polygon fill="#8c8c8c" stroke="#8c8c8c" points="331.2398,-1459.1931 336.1044,-1461.2904 333.6095,-1456.6173 331.2398,-1459.1931"/>
</g>
<!-- p32 -->
<g id="node35" class="node">
<title>p32</title>
<ellipse fill="#ffffff" stroke="#000000" cx="352.0936" cy="-1422" rx="27" ry="18"/>
<text text-anchor="middle" x="352.0936" y="-1419.2" font-family="Helvetica,sans-Serif" font-size="11.00" fill="#000000">pi0</text>
</g>
<!-- p1&#45;&gt;p32 -->
<g id="edge17" class="edge">
<title>p1&#45;&gt;p32</title>
<path fill="none" stroke="#8c8c8c" d="M288.106,-1402.3779C298.7029,-1405.6275 311.2578,-1409.4775 322.4279,-1412.9028"/>
<polygon fill="#8c8c8c" stroke="#8c8c8c" points="322.1572,-1414.6502 327.4506,-1414.4431 323.1834,-1411.304 322.1572,-1414.6502"/>
</g>
<!-- p33 -->
<g id="node36" class="node">
<title>p33</title>
<ellipse fill="#ffffff" stroke="#000000" cx="352.0936" cy="-1368" rx="27" ry="18"/>
<text text-anchor="middle" x="352.0936" y="-1365.2" font-family="Helvetica,sans-Serif" font-size="11.00" fill="#000000">pi</text>
</g>
<!-- p1&#45;&gt;p33 -->
<g id="edge18" class="edge">
<title>p1&#45;&gt;p33</title>
<path fill="none" stroke="#8c8c8c" d="M288.106,-1387.6221C298.7029,-1384.3725 311.2578,-1380.5225 322.4279,-1377.0972"/>
<polygon fill="#8c8c8c" stroke="#8c8c8c" points="323.1834,-1378.696 327.4506,-1375.5569 322.1572,-1375.3498 323.1834,-1378.696"/>
</g>
<!-- p10 -->
<g id="node13" class="node">
<title>p10</title>
<ellipse fill="#ffffff" stroke="#000000" cx="352.0936" cy="-1314" rx="27" ry="18"/>
<text text-anchor="middle" x="352.0936" y="-1311.2" font-family="Helvetica,sans-Serif" font-size="11.00" fill="#000000">nu</text>
</g>
<!-- p2&#45;&gt;p10 -->
<g id="edge22" class="edge">
<title>p2&#45;&gt;p10</title>
<path fill="none" stroke="#8c8c8c" d="M282.7193,-1250.178C297.2076,-1263.5068 317.253,-1281.9478 332.0721,-1295.5809"/>
<polygon fill="#8c8c8c" stroke="#8c8c8c" points="331.2398,-1297.1931 336.1044,-1299.2904 333.6095,-1294.6173 331.2398,-1297.1931"/>
</g>
<!-- p11 -->
<g id="node14" class="node">
<title>p11</title>
<ellipse fill="#ffffff" stroke="#000000" cx="352.0936" cy="-1260" rx="27" ry="18"/>
<text text-anchor="middle" x="352.0936" y="-1257.2" font-family="Helvetica,sans-Serif" font-size="11.00" fill="#000000">e</text>
</g>
<!-- p2&#45;&gt;p11 -->
<g id="edge23" class="edge">
<title>p2&#45;&gt;p11</title>
<path fill="none" stroke="#8c8c8c" d="M288.106,-1240.3779C298.7029,-1243.6275 311.2578,-1247.4775 322.4279,-1250.9028"/>
<polygon fill="#8c8c8c" stroke="#8c8c8c" points="322.1572,-1252.6502 327.4506,-1252.4431 323.1834,-1249.304 322.1572,-1252.6502"/>
</g>
<!-- p12 -->
<g id="node15" class="node">
<title>p12</title>
<ellipse fill="#ffffff" stroke="#000000" cx="352.0936" cy="-1206" rx="27" ry="18"/>
<text text-anchor="middle" x="352.0936" y="-1203.2" font-family="Helvetica,sans-Serif" font-size="11.00" fill="#000000">nu</text>
</g>
<!-- p2&#45;&gt;p12 -->
<g id="edge24" class="edge">
<title>p2&#45;&gt;p12</title>
<path fill="none" stroke="#8c8c8c" d="M288.106,-1225.6221C298.7029,-1222.3725 311.2578,-1218.5225 322.4279,-1215.0972"/>
<polygon fill="#8c8c8c" stroke="#8c8c8c" points="323.1834,-1216.696 327.4506,-1213.5569 322.1572,-1213.3498 323.1834,-1216.696"/>
</g>
<!-- p13 -->
<g id="node16" class="node">
<title>p13</title>
<ellipse fill="#ffffff" stroke="#000000" cx="352.0936" cy="-1152" rx="27" ry="18"/>
<text text-anchor="middle" x="352.0936" y="-1149.2" font-family="Helvetica,sans-Serif" font-size="11.00" fill="#000000">nu</text>
</g>
<!-- p3&#45;&gt;p13 -->
<g id="edge27" class="edge">
<title>p3&#45;&gt;p13</title>
<path fill="none" stroke="#8c8c8c" d="M282.7193,-1088.178C297.2076,-1101.5068 317.253,-1119.9478 332.0721,-1133.5809"/>
<polygon fill="#8c8c8c" stroke="#8c8c8c" points="331.2398,-1135.1931 336.1044,-1137.2904 333.6095,-1132.6173 331.2398,-1135.1931"/>
</g>
<!-- p14 -->
<g id="node17" class="node">
<title>p14</title>
<ellipse fill="#ffffff" stroke="#000000" cx="352.0936" cy="-1098" rx="27" ry="18"/>
<text text-anchor="middle" x="352.0936" y="-1095.2" font-family="Helvetica,sans-Serif" font-size="11.00" fill="#000000">K0</text>
</g>
<!-- p3&#45;&gt;p14 -->
<g id="edge28" class="edge">
<title>p3&#45;&gt;p14</title>
<path fill="none" stroke="#8c8c8c" d="M288.106,-1078.3779C298.7029,-1081.6275 311.2578,-1085.4775 322.4279,-1088.9028"/>
<polygon fill="#8c8c8c" stroke="#8c8c8c" points="322.1572,-1090.6502 327.4506,-1090.4431 323.1834,-1087.304 322.1572,-1090.6502"/>
</g>
<!-- p15 -->
<g id="node18" class="node">
<title>p15</title>
<ellipse fill="#ffffff" stroke="#000000" cx="352.0936" cy="-1044" rx="27" ry="18"/>
<text text-anchor="middle" x="352.0936" y="-1041.2" font-family="Helvetica,sans-Serif" font-size="11.00" fill="#000000">K</text>
</g>
<!-- p3&#45;&gt;p15 -->
<g id="edge29" class="edge">
<title>p3&#45;&gt;p15</title>
<path fill="none" stroke="#8c8c8c" d="M288.106,-1063.6221C298.7029,-1060.3725 311.2578,-1056.5225 322.4279,-1053.0972"/>
<polygon fill="#8c8c8c" stroke="#8c8c8c" points="323.1834,-1054.696 327.4506,-1051.5569 322.1572,-1051.3498 323.1834,-1054.696"/>
</g>
<!-- p16 -->
<g id="node19" class="node">
<title>p16</title>
<ellipse fill="#ffffff" stroke="#000000" cx="352.0936" cy="-990" rx="27" ry="18"/>
<text text-anchor="middle" x="352.0936" y="-987.2" font-family="Helvetica,sans-Serif" font-size="11.00" fill="#000000">nu</text>
</g>
<!-- p4&#45;&gt;p16 -->
<g id="edge32" class="edge">
<title>p4&#45;&gt;p16</title>
<path fill="none" stroke="#8c8c8c" d="M285.8112,-949.3483C298.5303,-957.1491 314.6134,-967.013 327.7516,-975.0708"/>
<polygon fill="#8c8c8c" stroke="#8c8c8c" points="326.908,-976.6063 332.0852,-977.7286 328.7379,-973.6227 326.908,-976.6063"/>
</g>
<!-- p17 -->
<g id="node20" class="node">
<title>p17</title>
<ellipse fill="#ffffff" stroke="#000000" cx="352.0936" cy="-936" rx="27" ry="18"/>
<text text-anchor="middle" x="352.0936" y="-933.2" font-family="Helvetica,sans-Serif" font-size="11.00" fill="#000000">pi</text>
</g>
<!-- p4&#45;&gt;p17 -->
<g id="edge33" class="edge">
<title>p4&#45;&gt;p17</title>
<path fill="none" stroke="#8c8c8c" d="M289.5136,-936C298.942,-936 309.7603,-936 319.7211,-936"/>
<polygon fill="#8c8c8c" stroke="#8c8c8c" points="319.84,-937.7501 324.8399,-936 319.8399,-934.2501 319.84,-937.7501"/>
</g>
<!-- p18 -->
<g id="node21" class="node">
<title>p18</title>
<ellipse fill="#ffffff" stroke="#000000" cx="352.0936" cy="-882" rx="27" ry="18"/>
<text text-anchor="middle" x="352.0936" y="-879.2" font-family="Helvetica,sans-Serif" font-size="11.00" fill="#000000">nu</text>
</g>
<!-- p5&#45;&gt;p18 -->
<g id="edge34" class="edge">
<title>p5&#45;&gt;p18</title>
<path fill="none" stroke="#8c8c8c" d="M282.7193,-818.178C297.2076,-831.5068 317.253,-849.9478 332.0721,-863.5809"/>
<polygon fill="#8c8c8c" stroke="#8c8c8c" points="331.2398,-865.1931 336.1044,-867.2904 333.6095,-862.6173 331.2398,-865.1931"/>
</g>
<!-- p19 -->
<g id="node22" class="node">
<title>p19</title>
<ellipse fill="#ffffff" stroke="#000000" cx="352.0936" cy="-828" rx="27" ry="18"/>
<text text-anchor="middle" x="352.0936" y="-825.2" font-family="Helvetica,sans-Serif" font-size="11.00" fill="#000000">pi0</text>
</g>
<!-- p5&#45;&gt;p19 -->
<g id="edge35" class="edge">
<title>p5&#45;&gt;p19</title>
<path fill="none" stroke="#8c8c8c" d="M288.106,-808.3779C298.7029,-811.6275 311.2578,-815.4775 322.4279,-818.9028"/>
<polygon fill="#8c8c8c" stroke="#8c8c8c" points="322.1572,-820.6502 327.4506,-820.4431 323.1834,-817.304 322.1572,-820.6502"/>
</g>
<!-- p20 -->
<g id="node23" class="node">
<title>p20</title>
<ellipse fill="#ffffff" stroke="#000000" cx="352.0936" cy="-774" rx="27" ry="18"/>
<text text-anchor="middle" x="352.0936" y="-771.2" font-family="Helvetica,sans-Serif" font-size="11.00" fill="#000000">pi</text>
</g>
<!-- p5&#45;&gt;p20 -->
<g id="edge36" class="edge">
<title>p5&#45;&gt;p20</title>
<path fill="none" stroke="#8c8c8c" d="M288.106,-793.6221C298.7029,-790.3725 311.2578,-786.5225 322.4279,-783.0972"/>
<polygon fill="#8c8c8c" stroke="#8c8c8c" points="323.1834,-784.696 327.4506,-781.5569 322.1572,-781.3498 323.1834,-784.696"/>
</g>
<!-- p21 -->
<g id="node24" class="node">
<title>p21</title>
<ellipse fill="#ffffff" stroke="#000000" cx="352.0936" cy="-720" rx="27" ry="18"/>
<text text-anchor="middle" x="352.0936" y="-717.2" font-family="Helvetica,sans-Serif" font-size="11.00" fill="#000000">pi</text>
</g>
<!-- p5&#45;&gt;p21 -->
<g id="edge37" class="edge">
<title>p5&#45;&gt;p21</title>
<path fill="none" stroke="#8c8c8c" d="M282.7193,-783.822C297.2076,-770.4932 317.253,-752.0522 332.0721,-738.4191"/>
<polygon fill="#8c8c8c" stroke="#8c8c8c" points="333.6095,-739.3827 336.1044,-734.7096 331.2398,-736.8069 333.6095,-739.3827"/>
</g>
<!-- p22 -->
<g id="node25" class="node">
<title>p22</title>
<ellipse fill="#ffffff" stroke="#000000" cx="352.0936" cy="-666" rx="27" ry="18"/>
<text text-anchor="middle" x="352.0936" y="-663.2" font-family="Helvetica,sans-Serif" font-size="11.00" fill="#000000">pi</text>
</g>
<!-- p5&#45;&gt;p22 -->
<g id="edge38" class="edge">
<title>p5&#45;&gt;p22</title>
<path fill="none" stroke="#8c8c8c" d="M274.7728,-777.9764C285.8401,-755.3225 304.3704,-720.2636 325.0936,-693 327.3,-690.0973 329.8045,-687.1956 332.3774,-684.4285"/>
<polygon fill="#8c8c8c" stroke="#8c8c8c" points="333.707,-685.5703 335.9064,-680.751 331.1817,-683.1469 333.707,-685.5703"/>
</g>
<!-- p23 -->
<g id="node26" class="node">
<title>p23</title>
<ellipse fill="#ffffff" stroke="#000000" cx="352.0936" cy="-612" rx="27" ry="18"/>
<text text-anchor="middle" x="352.0936" y="-609.2" font-family="Helvetica,sans-Serif" font-size="11.00" fill="#000000">nu</text>
</g>
<!-- p6&#45;&gt;p23 -->
<g id="edge39" class="edge">
<title>p6&#45;&gt;p23</title>
<path fill="none" stroke="#8c8c8c" d="M288.106,-592.3779C298.7029,-595.6275 311.2578,-599.4775 322.4279,-602.9028"/>
<polygon fill="#8c8c8c" stroke="#8c8c8c" points="322.1572,-604.6502 327.4506,-604.4431 323.1834,-601.304 322.1572,-604.6502"/>
</g>
<!-- p24 -->
<g id="node27" class="node">
<title>p24</title>
<ellipse fill="#ffffff" stroke="#000000" cx="352.0936" cy="-558" rx="27" ry="18"/>
<text text-anchor="middle" x="352.0936" y="-555.2" font-family="Helvetica,sans-Serif" font-size="11.00" fill="#000000">pi0</text>
</g>
<!-- p6&#45;&gt;p24 -->
<g id="edge40" class="edge">
<title>p6&#45;&gt;p24</title>
<path fill="none" stroke="#8c8c8c" d="M288.106,-577.6221C298.7029,-574.3725 311.2578,-570.5225 322.4279,-567.0972"/>
<polygon fill="#8c8c8c" stroke="#8c8c8c" points="323.1834,-568.696 327.4506,-565.5569 322.1572,-565.3498 323.1834,-568.696"/>
</g>
<!-- p25 -->
<g id="node28" class="node">
<title>p25</title>
<ellipse fill="#ffffff" stroke="#000000" cx="352.0936" cy="-504" rx="27" ry="18"/>
<text text-anchor="middle" x="352.0936" y="-501.2" font-family="Helvetica,sans-Serif" font-size="11.00" fill="#000000">pi</text>
</g>
<!-- p6&#45;&gt;p25 -->
<g id="edge41" class="edge">
<title>p6&#45;&gt;p25</title>
<path fill="none" stroke="#8c8c8c" d="M282.7193,-567.822C297.2076,-554.4932 317.253,-536.0522 332.0721,-522.4191"/>
<polygon fill="#8c8c8c" stroke="#8c8c8c" points="333.6095,-523.3827 336.1044,-518.7096 331.2398,-520.8069 333.6095,-523.3827"/>
</g>
<!-- p26 -->
<g id="node29" class="node">
<title>p26</title>
<ellipse fill="#ffffff" stroke="#000000" cx="352.0936" cy="-450" rx="27" ry="18"/>
<text text-anchor="middle" x="352.0936" y="-447.2" font-family="Helvetica,sans-Serif" font-size="11.00" fill="#000000">nu</text>
</g>
<!-- p7&#45;&gt;p26 -->
<g id="edge42" class="edge">
<title>p7&#45;&gt;p26</title>
<path fill="none" stroke="#8c8c8c" d="M288.106,-430.3779C298.7029,-433.6275 311.2578,-437.4775 322.4279,-440.9028"/>
<polygon fill="#8c8c8c" stroke="#8c8c8c" points="322.1572,-442.6502 327.4506,-442.4431 323.1834,-439.304 322.1572,-442.6502"/>
</g>
<!-- p27 -->
<g id="node30" class="node">
<title>p27</title>
<ellipse fill="#ffffff" stroke="#000000" cx="352.0936" cy="-396" rx="27" ry="18"/>
<text text-anchor="middle" x="352.0936" y="-393.2" font-family="Helvetica,sans-Serif" font-size="11.00" fill="#000000">mu</text>
</g>
<!-- p7&#45;&gt;p27 -->
<g id="edge43" class="edge">
<title>p7&#45;&gt;p27</title>
<path fill="none" stroke="#8c8c8c" d="M288.106,-415.6221C298.7029,-412.3725 311.2578,-408.5225 322.4279,-405.0972"/>
<polygon fill="#8c8c8c" stroke="#8c8c8c" points="323.1834,-406.696 327.4506,-403.5569 322.1572,-403.3498 323.1834,-406.696"/>
</g>
<!-- p28 -->
<g id="node31" class="node">
<title>p28</title>
<ellipse fill="#ffffff" stroke="#000000" cx="352.0936" cy="-342" rx="27" ry="18"/>
<text text-anchor="middle" x="352.0936" y="-339.2" font-family="Helvetica,sans-Serif" font-size="11.00" fill="#000000">nu</text>
</g>
<!-- p7&#45;&gt;p28 -->
<g id="edge44" class="edge">
<title>p7&#45;&gt;p28</title>
<path fill="none" stroke="#8c8c8c" d="M282.7193,-405.822C297.2076,-392.4932 317.253,-374.0522 332.0721,-360.4191"/>
<polygon fill="#8c8c8c" stroke="#8c8c8c" points="333.6095,-361.3827 336.1044,-356.7096 331.2398,-358.8069 333.6095,-361.3827"/>
</g>
<!-- p29 -->
<g id="node32" class="node">
<title>p29</title>
<ellipse fill="#ffffff" stroke="#000000" cx="352.0936" cy="-288" rx="27" ry="18"/>
<text text-anchor="middle" x="352.0936" y="-285.2" font-family="Helvetica,sans-Serif" font-size="11.00" fill="#000000">nu</text>
</g>
<!-- p8&#45;&gt;p29 -->
<g id="edge45" class="edge">
<title>p8&#45;&gt;p29</title>
<path fill="none" stroke="#8c8c8c" d="M289.5136,-288C298.942,-288 309.7603,-288 319.7211,-288"/>
<polygon fill="#8c8c8c" stroke="#8c8c8c" points="319.84,-289.7501 324.8399,-288 319.8399,-286.2501 319.84,-289.7501"/>
</g>
<!-- p30 -->
<g id="node33" class="node">
<title>p30</title>
<ellipse fill="#ffffff" stroke="#000000" cx="352.0936" cy="-234" rx="27" ry="18"/>
<text text-anchor="middle" x="352.0936" y="-231.2" font-family="Helvetica,sans-Serif" font-size="11.00" fill="#000000">pi</text>
</g>
<!-- p8&#45;&gt;p30 -->
<g id="edge46" class="edge">
<title>p8&#45;&gt;p30</title>
<path fill="none" stroke="#8c8c8c" d="M285.8112,-274.6517C298.5303,-266.8509 314.6134,-256.987 327.7516,-248.9292"/>
<polygon fill="#8c8c8c" stroke="#8c8c8c" points="328.7379,-250.3773 332.0852,-246.2714 326.908,-247.3937 328.7379,-250.3773"/>
</g>
<!-- p38 -->
<g id="node41" class="node">
<title>p38</title>
<ellipse fill="#ffffff" stroke="#000000" cx="352.0936" cy="-180" rx="27" ry="18"/>
<text text-anchor="middle" x="352.0936" y="-177.2" font-family="Helvetica,sans-Serif" font-size="11.00" fill="#000000">nu</text>
</g>
<!-- p9&#45;&gt;p38 -->
<g id="edge47" class="edge">
<title>p9&#45;&gt;p38</title>
<path fill="none" stroke="#8c8c8c" d="M285.8112,-139.3483C298.5303,-147.1491 314.6134,-157.013 327.7516,-165.0708"/>
<polygon fill="#8c8c8c" stroke="#8c8c8c" points="326.908,-166.6063 332.0852,-167.7286 328.7379,-163.6227 326.908,-166.6063"/>
</g>
<!-- p39 -->
<g id="node42" class="node">
<title>p39</title>
<ellipse fill="#ffffff" stroke="#000000" cx="352.0936" cy="-126" rx="27" ry="18"/>
<text text-anchor="middle" x="352.0936" y="-123.2" font-family="Helvetica,sans-Serif" font-size="11.00" fill="#000000">pi</text>
</g>
<!-- p9&#45;&gt;p39 -->
<g id="edge48" class="edge">
<title>p9&#45;&gt;p39</title>
<path fill="none" stroke="#8c8c8c" d="M289.5136,-126C298.942,-126 309.7603,-126 319.7211,-126"/>
<polygon fill="#8c8c8c" stroke="#8c8c8c" points="319.84,-127.7501 324.8399,-126 319.8399,-124.2501 319.84,-127.7501"/>
</g>
<!-- p40 -->
<g id="node43" class="node">
<title>p40</title>
<ellipse fill="#ffffff" stroke="#000000" cx="352.0936" cy="-72" rx="27" ry="18"/>
<text text-anchor="middle" x="352.0936" y="-69.2" font-family="Helvetica,sans-Serif" font-size="11.00" fill="#000000">pi</text>
</g>
<!-- p9&#45;&gt;p40 -->
<g id="edge49" class="edge">
<title>p9&#45;&gt;p40</title>
<path fill="none" stroke="#8c8c8c" d="M285.8112,-112.6517C298.5303,-104.8509 314.6134,-94.987 327.7516,-86.9292"/>
<polygon fill="#8c8c8c" stroke="#8c8c8c" points="328.7379,-88.3773 332.0852,-84.2714 326.908,-85.3937 328.7379,-88.3773"/>
</g>
<!-- p41 -->
<g id="node44" class="node">
<title>p41</title>
<ellipse fill="#ffffff" stroke="#000000" cx="352.0936" cy="-18" rx="27" ry="18"/>
<text text-anchor="middle" x="352.0936" y="-15.2" font-family="Helvetica,sans-Serif" font-size="11.00" fill="#000000">pi</text>
</g>
<!-- p9&#45;&gt;p41 -->
<g id="edge50" class="edge">
<title>p9&#45;&gt;p41</title>
<path fill="none" stroke="#8c8c8c" d="M278.345,-105.4165C290.2632,-88.6676 307.9951,-64.6682 325.0936,-45 327.5455,-42.1796 330.2269,-39.292 332.9178,-36.5037"/>
<polygon fill="#8c8c8c" stroke="#8c8c8c" points="334.32,-37.5732 336.5724,-32.7785 331.8216,-35.1221 334.32,-37.5732"/>
</g>
<!-- p42 -->
<g id="node45" class="node">
<title>p42</title>
<ellipse fill="#ffffff" stroke="#000000" cx="442.0936" cy="-1098" rx="27" ry="18"/>
<text text-anchor="middle" x="442.0936" y="-1095.2" font-family="Helvetica,sans-Serif" font-size="11.00" fill="#000000">K0L</text>
</g>
<!-- p14&#45;&gt;p42 -->
<g id="edge19" class="edge">
<title>p14&#45;&gt;p42</title>
<path fill="none" stroke="#8c8c8c" d="M379.0966,-1098C388.7086,-1098 399.6322,-1098 409.6527,-1098"/>
<polygon fill="#8c8c8c" stroke="#8c8c8c" points="409.7987,-1099.7501 414.7987,-1098 409.7986,-1096.2501 409.7987,-1099.7501"/>
</g>
<!-- p43 -->
<g id="node46" class="node">
<title>p43</title>
<ellipse fill="#ffffff" stroke="#000000" cx="442.0936" cy="-855" rx="27" ry="18"/>
<text text-anchor="middle" x="442.0936" y="-852.2" font-family="Helvetica,sans-Serif" font-size="11.00" fill="#000000">gam</text>
</g>
<!-- p19&#45;&gt;p43 -->
<g id="edge20" class="edge">
<title>p19&#45;&gt;p43</title>
<path fill="none" stroke="#8c8c8c" d="M377.1637,-835.521C388.1773,-838.8251 401.1868,-842.728 412.6576,-846.1692"/>
<polygon fill="#8c8c8c" stroke="#8c8c8c" points="412.1771,-847.852 417.4691,-847.6126 413.1829,-844.4996 412.1771,-847.852"/>
</g>
<!-- p44 -->
<g id="node47" class="node">
<title>p44</title>
<ellipse fill="#ffffff" stroke="#000000" cx="442.0936" cy="-801" rx="27" ry="18"/>
<text text-anchor="middle" x="442.0936" y="-798.2" font-family="Helvetica,sans-Serif" font-size="11.00" fill="#000000">gam</text>
</g>
<!-- p19&#45;&gt;p44 -->
<g id="edge21" class="edge">
<title>p19&#45;&gt;p44</title>
<path fill="none" stroke="#8c8c8c" d="M377.1637,-820.479C388.1773,-817.1749 401.1868,-813.272 412.6576,-809.8308"/>
<polygon fill="#8c8c8c" stroke="#8c8c8c" points="413.1829,-811.5004 417.4691,-808.3874 412.1771,-808.148 413.1829,-811.5004"/>
</g>
<!-- p45 -->
<g id="node48" class="node">
<title>p45</title>
<ellipse fill="#ffffff" stroke="#000000" cx="442.0936" cy="-585" rx="27" ry="18"/>
<text text-anchor="middle" x="442.0936" y="-582.2" font-family="Helvetica,sans-Serif" font-size="11.00" fill="#000000">gam</text>
</g>
<!-- p24&#45;&gt;p45 -->
<g id="edge25" class="edge">
<title>p24&#45;&gt;p45</title>
<path fill="none" stroke="#8c8c8c" d="M377.1637,-565.521C388.1773,-568.8251 401.1868,-572.728 412.6576,-576.1692"/>
<polygon fill="#8c8c8c" stroke="#8c8c8c" points="412.1771,-577.852 417.4691,-577.6126 413.1829,-574.4996 412.1771,-577.852"/>
</g>
<!-- p46 -->
<g id="node49" class="node">
<title>p46</title>
<ellipse fill="#ffffff" stroke="#000000" cx="442.0936" cy="-531" rx="27" ry="18"/>
<text text-anchor="middle" x="442.0936" y="-528.2" font-family="Helvetica,sans-Serif" font-size="11.00" fill="#000000">gam</text>
</g>
<!-- p24&#45;&gt;p46 -->
<g id="edge26" class="edge">
<title>p24&#45;&gt;p46</title>
<path fill="none" stroke="#8c8c8c" d="M377.1637,-550.479C388.1773,-547.1749 401.1868,-543.272 412.6576,-539.8308"/>
<polygon fill="#8c8c8c" stroke="#8c8c8c" points="413.1829,-541.5004 417.4691,-538.3874 412.1771,-538.148 413.1829,-541.5004"/>
</g>
<!-- p47 -->
<g id="node50" class="node">
<title>p47</title>
<ellipse fill="#ffffff" stroke="#000000" cx="442.0936" cy="-1449" rx="27" ry="18"/>
<text text-anchor="middle" x="442.0936" y="-1446.2" font-family="Helvetica,sans-Serif" font-size="11.00" fill="#000000">gam</text>
</g>
<!-- p32&#45;&gt;p47 -->
<g id="edge30" class="edge">
<title>p32&#45;&gt;p47</title>
<path fill="none" stroke="#8c8c8c" d="M377.1637,-1429.521C388.1773,-1432.8251 401.1868,-1436.728 412.6576,-1440.1692"/>
<polygon fill="#8c8c8c" stroke="#8c8c8c" points="412.1771,-1441.852 417.4691,-1441.6126 413.1829,-1438.4996 412.1771,-1441.852"/>
</g>
<!-- p48 -->
<g id="node51" class="node">
<title>p48</title>
<ellipse fill="#ffffff" stroke="#000000" cx="442.0936" cy="-1395" rx="27" ry="18"/>
<text text-anchor="middle" x="442.0936" y="-1392.2" font-family="Helvetica,sans-Serif" font-size="11.00" fill="#000000">gam</text>
</g>
<!-- p32&#45;&gt;p48 -->
<g id="edge31" class="edge">
<title>p32&#45;&gt;p48</title>
<path fill="none" stroke="#8c8c8c" d="M377.1637,-1414.479C388.1773,-1411.1749 401.1868,-1407.272 412.6576,-1403.8308"/>
<polygon fill="#8c8c8c" stroke="#8c8c8c" points="413.1829,-1405.5004 417.4691,-1402.3874 412.1771,-1402.148 413.1829,-1405.5004"/>
</g>
</g>
</svg>
