<?xml version="1.0" encoding="UTF-8" standalone="no"?>
<!DOCTYPE svg PUBLIC "-//W3C//DTD SVG 1.1//EN"
 "http://www.w3.org/Graphics/SVG/1.1/DTD/svg11.dtd">
<!-- Generated by graphviz version 2.40.1 (0)
 -->
<!-- Title: TenTauSignal Pages: 1 -->
<svg width="482pt" height="1718pt"
 viewBox="0.00 0.00 482.09 1718.00" xmlns="http://www.w3.org/2000/svg" xmlns:xlink="http://www.w3.org/1999/xlink">
<g id="graph0" class="graph" transform="scale(1 1) rotate(0) translate(4 1714)">
<title>TenTauSignal</title>
<polygon fill="#ffffff" stroke="transparent" points="-4,4 -4,-1714 478.0936,-1714 478.0936,4 -4,4"/>
<!-- SIG -->
<g id="node1" class="node">
<title>SIG</title>
<path fill="#ff6a6a" stroke="#000000" d="M196,-901C196,-901 12,-901 12,-901 6,-901 0,-895 0,-889 0,-889 0,-875 0,-875 0,-869 6,-863 12,-863 12,-863 196,-863 196,-863 202,-863 208,-869 208,-875 208,-875 208,-889 208,-889 208,-895 202,-901 196,-901"/>
<text text-anchor="middle" x="104" y="-885.8" font-family="Helvetica,sans-Serif" font-size="14.00" fill="#ffffff">SIGNAL</text>
<text text-anchor="middle" x="104" y="-870.8" font-family="Helvetica,sans-Serif" font-size="14.00" fill="#ffffff">(artificial upstream vertex)</text>
</g>
<!-- p0 -->
<g id="node2" class="node">
<title>p0</title>
<ellipse fill="#ffd700" stroke="#000000" cx="269.0468" cy="-1584" rx="21.0862" ry="21.0862"/>
<ellipse fill="none" stroke="#000000" cx="269.0468" cy="-1584" rx="25.0937" ry="25.0937"/>
<text text-anchor="middle" x="269.0468" y="-1581.2" font-family="Helvetica,sans-Serif" font-size="11.00" fill="#000000">tau</text>
</g>
<!-- SIG&#45;&gt;p0 -->
<g id="edge1" class="edge">
<title>SIG&#45;&gt;p0</title>
<path fill="none" stroke="#cd5555" stroke-width="1.4" d="M108.5002,-901.1409C131.1938,-997.6645 233.1132,-1431.162 261.6184,-1552.4044"/>
<polygon fill="#cd5555" stroke="#cd5555" stroke-width="1.4" points="259.2462,-1553.0196 263.2333,-1559.2731 264.0161,-1551.8981 259.2462,-1553.0196"/>
</g>
<!-- p1 -->
<g id="node3" class="node">
<title>p1</title>
<ellipse fill="#ffd700" stroke="#000000" cx="269.0468" cy="-1395" rx="21.0862" ry="21.0862"/>
<ellipse fill="none" stroke="#000000" cx="269.0468" cy="-1395" rx="25.0937" ry="25.0937"/>
<text text-anchor="middle" x="269.0468" y="-1392.2" font-family="Helvetica,sans-Serif" font-size="11.00" fill="#000000">tau</text>
</g>
<!-- SIG&#45;&gt;p1 -->
<g id="edge2" class="edge">
<title>SIG&#45;&gt;p1</title>
<path fill="none" stroke="#cd5555" stroke-width="1.4" d="M110.1688,-901.1739C135.0896,-978.6329 228.4624,-1268.8551 259.1813,-1364.336"/>
<polygon fill="#cd5555" stroke="#cd5555" stroke-width="1.4" points="256.8916,-1365.2187 261.3678,-1371.132 261.5561,-1363.718 256.8916,-1365.2187"/>
</g>
<!-- p2 -->
<g id="node4" class="node">
<title>p2</title>
<ellipse fill="#ffd700" stroke="#000000" cx="269.0468" cy="-1233" rx="21.0862" ry="21.0862"/>
<ellipse fill="none" stroke="#000000" cx="269.0468" cy="-1233" rx="25.0937" ry="25.0937"/>
<text text-anchor="middle" x="269.0468" y="-1230.2" font-family="Helvetica,sans-Serif" font-size="11.00" fill="#000000">tau</text>
</g>
<!-- SIG&#45;&gt;p2 -->
<g id="edge3" class="edge">
<title>SIG&#45;&gt;p2</title>
<path fill="none" stroke="#cd5555" stroke-width="1.4" d="M112.9908,-901.1205C140.2956,-959.1888 222.3893,-1133.7749 255.2389,-1203.6351"/>
<polygon fill="#cd5555" stroke="#cd5555" stroke-width="1.4" points="253.0648,-1204.7694 258.2607,-1210.0614 257.4991,-1202.6843 253.0648,-1204.7694"/>
</g>
<!-- p3 -->
<g id="node5" class="node">
<title>p3</title>
<ellipse fill="#ffd700" stroke="#000000" cx="269.0468" cy="-1071" rx="21.0862" ry="21.0862"/>
<ellipse fill="none" stroke="#000000" cx="269.0468" cy="-1071" rx="25.0937" ry="25.0937"/>
<text text-anchor="middle" x="269.0468" y="-1068.2" font-family="Helvetica,sans-Serif" font-size="11.00" fill="#000000">tau</text>
</g>
<!-- SIG&#45;&gt;p3 -->
<g id="edge4" class="edge">
<title>SIG&#45;&gt;p3</title>
<path fill="none" stroke="#cd5555" stroke-width="1.4" d="M120.7338,-901.1624C150.9628,-935.7785 214.6131,-1008.6664 247.8401,-1046.7155"/>
<polygon fill="#cd5555" stroke="#cd5555" stroke-width="1.4" points="246.0643,-1048.4068 252.5141,-1052.0679 249.7551,-1045.1837 246.0643,-1048.4068"/>
</g>
<!-- p4 -->
<g id="node6" class="node">
<title>p4</title>
<ellipse fill="#ffd700" stroke="#000000" cx="269.0468" cy="-936" rx="21.0862" ry="21.0862"/>
<ellipse fill="none" stroke="#000000" cx="269.0468" cy="-936" rx="25.0937" ry="25.0937"/>
<text text-anchor="middle" x="269.0468" y="-933.2" font-family="Helvetica,sans-Serif" font-size="11.00" fill="#000000">tau</text>
</g>
<!-- SIG&#45;&gt;p4 -->
<g id="edge5" class="edge">
<title>SIG&#45;&gt;p4</title>
<path fill="none" stroke="#cd5555" stroke-width="1.4" d="M162.1893,-901.0384C187.7044,-909.3864 216.6279,-918.8496 237.943,-925.8234"/>
<polygon fill="#cd5555" stroke="#cd5555" stroke-width="1.4" points="237.4491,-928.2396 244.8639,-928.0878 238.9728,-923.5825 237.4491,-928.2396"/>
</g>
<!-- p5 -->
<g id="node7" class="node">
<title>p5</title>
<ellipse fill="#ffd700" stroke="#000000" cx="269.0468" cy="-801" rx="21.0862" ry="21.0862"/>
<ellipse fill="none" stroke="#000000" cx="269.0468" cy="-801" rx="25.0937" ry="25.0937"/>
<text text-anchor="middle" x="269.0468" y="-798.2" font-family="Helvetica,sans-Serif" font-size="11.00" fill="#000000">tau</text>
</g>
<!-- SIG&#45;&gt;p5 -->
<g id="edge6" class="edge">
<title>SIG&#45;&gt;p5</title>
<path fill="none" stroke="#cd5555" stroke-width="1.4" d="M143.1138,-862.8041C172.8166,-848.2269 213.0082,-828.502 239.921,-815.2941"/>
<polygon fill="#cd5555" stroke="#cd5555" stroke-width="1.4" points="241.2581,-817.3671 246.4627,-812.0836 239.0992,-812.9683 241.2581,-817.3671"/>
</g>
<!-- p6 -->
<g id="node8" class="node">
<title>p6</title>
<ellipse fill="#ffd700" stroke="#000000" cx="269.0468" cy="-585" rx="21.0862" ry="21.0862"/>
<ellipse fill="none" stroke="#000000" cx="269.0468" cy="-585" rx="25.0937" ry="25.0937"/>
<text text-anchor="middle" x="269.0468" y="-582.2" font-family="Helvetica,sans-Serif" font-size="11.00" fill="#000000">tau</text>
</g>
<!-- SIG&#45;&gt;p6 -->
<g id="edge7" class="edge">
<title>SIG&#45;&gt;p6</title>
<path fill="none" stroke="#cd5555" stroke-width="1.4" d="M114.5755,-862.9695C142.7891,-812.1994 219.9619,-673.3277 253.3303,-613.2817"/>
<polygon fill="#cd5555" stroke="#cd5555" stroke-width="1.4" points="255.5402,-614.3488 256.7989,-607.04 251.2571,-611.9686 255.5402,-614.3488"/>
</g>
<!-- p7 -->
<g id="node9" class="node">
<title>p7</title>
<ellipse fill="#ffd700" stroke="#000000" cx="269.0468" cy="-423" rx="21.0862" ry="21.0862"/>
<ellipse fill="none" stroke="#000000" cx="269.0468" cy="-423" rx="25.0937" ry="25.0937"/>
<text text-anchor="middle" x="269.0468" y="-420.2" font-family="Helvetica,sans-Serif" font-size="11.00" fill="#000000">tau</text>
</g>
<!-- SIG&#45;&gt;p7 -->
<g id="edge8" class="edge">
<title>SIG&#45;&gt;p7</title>
<path fill="none" stroke="#cd5555" stroke-width="1.4" d="M110.8817,-862.8617C136.5128,-791.581 226.574,-541.1181 258.0713,-453.5232"/>
<polygon fill="#cd5555" stroke="#cd5555" stroke-width="1.4" points="260.4358,-454.188 260.499,-446.7718 255.8248,-452.5299 260.4358,-454.188"/>
</g>
<!-- p8 -->
<g id="node10" class="node">
<title>p8</title>
<ellipse fill="#ffd700" stroke="#000000" cx="269.0468" cy="-288" rx="21.0862" ry="21.0862"/>
<ellipse fill="none" stroke="#000000" cx="269.0468" cy="-288" rx="25.0937" ry="25.0937"/>
<text text-anchor="middle" x="269.0468" y="-285.2" font-family="Helvetica,sans-Serif" font-size="11.00" fill="#000000">tau</text>
</g>
<!-- SIG&#45;&gt;p8 -->
<g id="edge9" class="edge">
<title>SIG&#45;&gt;p8</title>
<path fill="none" stroke="#cd5555" stroke-width="1.4" d="M109.3045,-862.9093C133.1446,-777.1092 230.5087,-426.698 260.3265,-319.3844"/>
<polygon fill="#cd5555" stroke="#cd5555" stroke-width="1.4" points="262.7596,-319.7788 262.2731,-312.3783 258.0385,-318.4669 262.7596,-319.7788"/>
</g>
<!-- p9 -->
<g id="node11" class="node">
<title>p9</title>
<ellipse fill="#ffd700" stroke="#000000" cx="269.0468" cy="-126" rx="21.0862" ry="21.0862"/>
<ellipse fill="none" stroke="#000000" cx="269.0468" cy="-126" rx="25.0937" ry="25.0937"/>
<text text-anchor="middle" x="269.0468" y="-123.2" font-family="Helvetica,sans-Serif" font-size="11.00" fill="#000000">tau</text>
</g>
<!-- SIG&#45;&gt;p9 -->
<g id="edge10" class="edge">
<title>SIG&#45;&gt;p9</title>
<path fill="none" stroke="#cd5555" stroke-width="1.4" d="M108.1624,-862.9341C130.3158,-761.4599 234.4082,-284.6629 262.2074,-157.3282"/>
<polygon fill="#cd5555" stroke="#cd5555" stroke-width="1.4" points="264.6017,-157.8474 263.7012,-150.4859 259.8144,-156.8022 264.6017,-157.8474"/>
</g>
<!-- p34 -->
<g id="node36" class="node">
<title>p34</title>
<ellipse fill="#ffffff" stroke="#000000" cx="357.0936" cy="-1692" rx="27" ry="18"/>
<text text-anchor="middle" x="357.0936" y="-1689.2" font-family="Helvetica,sans-Serif" font-size="11.00" fill="#000000">nu</text>
</g>
<!-- p0&#45;&gt;p34 -->
<g id="edge11" class="edge">
<title>p0&#45;&gt;p34</title>
<path fill="none" stroke="#8c8c8c" d="M283.345,-1604.5835C295.2632,-1621.3324 312.9951,-1645.3318 330.0936,-1665 332.5455,-1667.8204 335.2269,-1670.708 337.9178,-1673.4963"/>
<polygon fill="#8c8c8c" stroke="#8c8c8c" points="336.8216,-1674.8779 341.5724,-1677.2215 339.32,-1672.4268 336.8216,-1674.8779"/>
</g>
<!-- p35 -->
<g id="node37" class="node">
<title>p35</title>
<ellipse fill="#ffffff" stroke="#000000" cx="357.0936" cy="-1638" rx="27" ry="18"/>
<text text-anchor="middle" x="357.0936" y="-1635.2" font-family="Helvetica,sans-Serif" font-size="11.00" fill="#000000">pi</text>
</g>
<!-- p0&#45;&gt;p35 -->
<g id="edge12" class="edge">
<title>p0&#45;&gt;p35</title>
<path fill="none" stroke="#8c8c8c" d="M290.8112,-1597.3483C303.5303,-1605.1491 319.6134,-1615.013 332.7516,-1623.0708"/>
<polygon fill="#8c8c8c" stroke="#8c8c8c" points="331.908,-1624.6063 337.0852,-1625.7286 333.7379,-1621.6227 331.908,-1624.6063"/>
</g>
<!-- p36 -->
<g id="node38" class="node">
<title>p36</title>
<ellipse fill="#ffffff" stroke="#000000" cx="357.0936" cy="-1584" rx="27" ry="18"/>
<text text-anchor="middle" x="357.0936" y="-1581.2" font-family="Helvetica,sans-Serif" font-size="11.00" fill="#000000">pi</text>
</g>
<!-- p0&#45;&gt;p36 -->
<g id="edge13" class="edge">
<title>p0&#45;&gt;p36</title>
<path fill="none" stroke="#8c8c8c" d="M294.5136,-1584C303.942,-1584 314.7603,-1584 324.7211,-1584"/>
<polygon fill="#8c8c8c" stroke="#8c8c8c" points="324.84,-1585.7501 329.8399,-1584 324.8399,-1582.2501 324.84,-1585.7501"/>
</g>
<!-- p37 -->
<g id="node39" class="node">
<title>p37</title>
<ellipse fill="#ffffff" stroke="#000000" cx="357.0936" cy="-1530" rx="27" ry="18"/>
<text text-anchor="middle" x="357.0936" y="-1527.2" font-family="Helvetica,sans-Serif" font-size="11.00" fill="#000000">pi</text>
</g>
<!-- p0&#45;&gt;p37 -->
<g id="edge14" class="edge">
<title>p0&#45;&gt;p37</title>
<path fill="none" stroke="#8c8c8c" d="M290.8112,-1570.6517C303.5303,-1562.8509 319.6134,-1552.987 332.7516,-1544.9292"/>
<polygon fill="#8c8c8c" stroke="#8c8c8c" points="333.7379,-1546.3773 337.0852,-1542.2714 331.908,-1543.3937 333.7379,-1546.3773"/>
</g>
<!-- p31 -->
<g id="node33" class="node">
<title>p31</title>
<ellipse fill="#ffffff" stroke="#000000" cx="357.0936" cy="-1476" rx="27" ry="18"/>
<text text-anchor="middle" x="357.0936" y="-1473.2" font-family="Helvetica,sans-Serif" font-size="11.00" fill="#000000">nu</text>
</g>
<!-- p1&#45;&gt;p31 -->
<g id="edge15" class="edge">
<title>p1&#45;&gt;p31</title>
<path fill="none" stroke="#8c8c8c" d="M287.7193,-1412.178C302.2076,-1425.5068 322.253,-1443.9478 337.0721,-1457.5809"/>
<polygon fill="#8c8c8c" stroke="#8c8c8c" points="336.2398,-1459.1931 341.1044,-1461.2904 338.6095,-1456.6173 336.2398,-1459.1931"/>
</g>
<!-- p32 -->
<g id="node34" class="node">
<title>p32</title>
<ellipse fill="#ffffff" stroke="#000000" cx="357.0936" cy="-1422" rx="27" ry="18"/>
<text text-anchor="middle" x="357.0936" y="-1419.2" font-family="Helvetica,sans-Serif" font-size="11.00" fill="#000000">pi0</text>
</g>
<!-- p1&#45;&gt;p32 -->
<g id="edge16" class="edge">
<title>p1&#45;&gt;p32</title>
<path fill="none" stroke="#8c8c8c" d="M293.106,-1402.3779C303.7029,-1405.6275 316.2578,-1409.4775 327.4279,-1412.9028"/>
<polygon fill="#8c8c8c" stroke="#8c8c8c" points="327.1572,-1414.6502 332.4506,-1414.4431 328.1834,-1411.304 327.1572,-1414.6502"/>
</g>
<!-- p33 -->
<g id="node35" class="node">
<title>p33</title>
<ellipse fill="#ffffff" stroke="#000000" cx="357.0936" cy="-1368" rx="27" ry="18"/>
<text text-anchor="middle" x="357.0936" y="-1365.2" font-family="Helvetica,sans-Serif" font-size="11.00" fill="#000000">pi</text>
</g>
<!-- p1&#45;&gt;p33 -->
<g id="edge17" class="edge">
<title>p1&#45;&gt;p33</title>
<path fill="none" stroke="#8c8c8c" d="M293.106,-1387.6221C303.7029,-1384.3725 316.2578,-1380.5225 327.4279,-1377.0972"/>
<polygon fill="#8c8c8c" stroke="#8c8c8c" points="328.1834,-1378.696 332.4506,-1375.5569 327.1572,-1375.3498 328.1834,-1378.696"/>
</g>
<!-- p10 -->
<g id="node12" class="node">
<title>p10</title>
<ellipse fill="#ffffff" stroke="#000000" cx="357.0936" cy="-1314" rx="27" ry="18"/>
<text text-anchor="middle" x="357.0936" y="-1311.2" font-family="Helvetica,sans-Serif" font-size="11.00" fill="#000000">nu</text>
</g>
<!-- p2&#45;&gt;p10 -->
<g id="edge21" class="edge">
<title>p2&#45;&gt;p10</title>
<path fill="none" stroke="#8c8c8c" d="M287.7193,-1250.178C302.2076,-1263.5068 322.253,-1281.9478 337.0721,-1295.5809"/>
<polygon fill="#8c8c8c" stroke="#8c8c8c" points="336.2398,-1297.1931 341.1044,-1299.2904 338.6095,-1294.6173 336.2398,-1297.1931"/>
</g>
<!-- p11 -->
<g id="node13" class="node">
<title>p11</title>
<ellipse fill="#ffffff" stroke="#000000" cx="357.0936" cy="-1260" rx="27" ry="18"/>
<text text-anchor="middle" x="357.0936" y="-1257.2" font-family="Helvetica,sans-Serif" font-size="11.00" fill="#000000">e</text>
</g>
<!-- p2&#45;&gt;p11 -->
<g id="edge22" class="edge">
<title>p2&#45;&gt;p11</title>
<path fill="none" stroke="#8c8c8c" d="M293.106,-1240.3779C303.7029,-1243.6275 316.2578,-1247.4775 327.4279,-1250.9028"/>
<polygon fill="#8c8c8c" stroke="#8c8c8c" points="327.1572,-1252.6502 332.4506,-1252.4431 328.1834,-1249.304 327.1572,-1252.6502"/>
</g>
<!-- p12 -->
<g id="node14" class="node">
<title>p12</title>
<ellipse fill="#ffffff" stroke="#000000" cx="357.0936" cy="-1206" rx="27" ry="18"/>
<text text-anchor="middle" x="357.0936" y="-1203.2" font-family="Helvetica,sans-Serif" font-size="11.00" fill="#000000">nu</text>
</g>
<!-- p2&#45;&gt;p12 -->
<g id="edge23" class="edge">
<title>p2&#45;&gt;p12</title>
<path fill="none" stroke="#8c8c8c" d="M293.106,-1225.6221C303.7029,-1222.3725 316.2578,-1218.5225 327.4279,-1215.0972"/>
<polygon fill="#8c8c8c" stroke="#8c8c8c" points="328.1834,-1216.696 332.4506,-1213.5569 327.1572,-1213.3498 328.1834,-1216.696"/>
</g>
<!-- p13 -->
<g id="node15" class="node">
<title>p13</title>
<ellipse fill="#ffffff" stroke="#000000" cx="357.0936" cy="-1152" rx="27" ry="18"/>
<text text-anchor="middle" x="357.0936" y="-1149.2" font-family="Helvetica,sans-Serif" font-size="11.00" fill="#000000">nu</text>
</g>
<!-- p3&#45;&gt;p13 -->
<g id="edge26" class="edge">
<title>p3&#45;&gt;p13</title>
<path fill="none" stroke="#8c8c8c" d="M287.7193,-1088.178C302.2076,-1101.5068 322.253,-1119.9478 337.0721,-1133.5809"/>
<polygon fill="#8c8c8c" stroke="#8c8c8c" points="336.2398,-1135.1931 341.1044,-1137.2904 338.6095,-1132.6173 336.2398,-1135.1931"/>
</g>
<!-- p14 -->
<g id="node16" class="node">
<title>p14</title>
<ellipse fill="#ffffff" stroke="#000000" cx="357.0936" cy="-1098" rx="27" ry="18"/>
<text text-anchor="middle" x="357.0936" y="-1095.2" font-family="Helvetica,sans-Serif" font-size="11.00" fill="#000000">K0</text>
</g>
<!-- p3&#45;&gt;p14 -->
<g id="edge27" class="edge">
<title>p3&#45;&gt;p14</title>
<path fill="none" stroke="#8c8c8c" d="M293.106,-1078.3779C303.7029,-1081.6275 316.2578,-1085.4775 327.4279,-1088.9028"/>
<polygon fill="#8c8c8c" stroke="#8c8c8c" points="327.1572,-1090.6502 332.4506,-1090.4431 328.1834,-1087.304 327.1572,-1090.6502"/>
</g>
<!-- p15 -->
<g id="node17" class="node">
<title>p15</title>
<ellipse fill="#ffffff" stroke="#000000" cx="357.0936" cy="-1044" rx="27" ry="18"/>
<text text-anchor="middle" x="357.0936" y="-1041.2" font-family="Helvetica,sans-Serif" font-size="11.00" fill="#000000">K</text>
</g>
<!-- p3&#45;&gt;p15 -->
<g id="edge28" class="edge">
<title>p3&#45;&gt;p15</title>
<path fill="none" stroke="#8c8c8c" d="M293.106,-1063.6221C303.7029,-1060.3725 316.2578,-1056.5225 327.4279,-1053.0972"/>
<polygon fill="#8c8c8c" stroke="#8c8c8c" points="328.1834,-1054.696 332.4506,-1051.5569 327.1572,-1051.3498 328.1834,-1054.696"/>
</g>
<!-- p16 -->
<g id="node18" class="node">
<title>p16</title>
<ellipse fill="#ffffff" stroke="#000000" cx="357.0936" cy="-990" rx="27" ry="18"/>
<text text-anchor="middle" x="357.0936" y="-987.2" font-family="Helvetica,sans-Serif" font-size="11.00" fill="#000000">nu</text>
</g>
<!-- p4&#45;&gt;p16 -->
<g id="edge31" class="edge">
<title>p4&#45;&gt;p16</title>
<path fill="none" stroke="#8c8c8c" d="M290.8112,-949.3483C303.5303,-957.1491 319.6134,-967.013 332.7516,-975.0708"/>
<polygon fill="#8c8c8c" stroke="#8c8c8c" points="331.908,-976.6063 337.0852,-977.7286 333.7379,-973.6227 331.908,-976.6063"/>
</g>
<!-- p17 -->
<g id="node19" class="node">
<title>p17</title>
<ellipse fill="#ffffff" stroke="#000000" cx="357.0936" cy="-936" rx="27" ry="18"/>
<text text-anchor="middle" x="357.0936" y="-933.2" font-family="Helvetica,sans-Serif" font-size="11.00" fill="#000000">pi</text>
</g>
<!-- p4&#45;&gt;p17 -->
<g id="edge32" class="edge">
<title>p4&#45;&gt;p17</title>
<path fill="none" stroke="#8c8c8c" d="M294.5136,-936C303.942,-936 314.7603,-936 324.7211,-936"/>
<polygon fill="#8c8c8c" stroke="#8c8c8c" points="324.84,-937.7501 329.8399,-936 324.8399,-934.2501 324.84,-937.7501"/>
</g>
<!-- p18 -->
<g id="node20" class="node">
<title>p18</title>
<ellipse fill="#ffffff" stroke="#000000" cx="357.0936" cy="-882" rx="27" ry="18"/>
<text text-anchor="middle" x="357.0936" y="-879.2" font-family="Helvetica,sans-Serif" font-size="11.00" fill="#000000">nu</text>
</g>
<!-- p5&#45;&gt;p18 -->
<g id="edge33" class="edge">
<title>p5&#45;&gt;p18</title>
<path fill="none" stroke="#8c8c8c" d="M287.7193,-818.178C302.2076,-831.5068 322.253,-849.9478 337.0721,-863.5809"/>
<polygon fill="#8c8c8c" stroke="#8c8c8c" points="336.2398,-865.1931 341.1044,-867.2904 338.6095,-862.6173 336.2398,-865.1931"/>
</g>
<!-- p19 -->
<g id="node21" class="node">
<title>p19</title>
<ellipse fill="#ffffff" stroke="#000000" cx="357.0936" cy="-828" rx="27" ry="18"/>
<text text-anchor="middle" x="357.0936" y="-825.2" font-family="Helvetica,sans-Serif" font-size="11.00" fill="#000000">pi0</text>
</g>
<!-- p5&#45;&gt;p19 -->
<g id="edge34" class="edge">
<title>p5&#45;&gt;p19</title>
<path fill="none" stroke="#8c8c8c" d="M293.106,-808.3779C303.7029,-811.6275 316.2578,-815.4775 327.4279,-818.9028"/>
<polygon fill="#8c8c8c" stroke="#8c8c8c" points="327.1572,-820.6502 332.4506,-820.4431 328.1834,-817.304 327.1572,-820.6502"/>
</g>
<!-- p20 -->
<g id="node22" class="node">
<title>p20</title>
<ellipse fill="#ffffff" stroke="#000000" cx="357.0936" cy="-774" rx="27" ry="18"/>
<text text-anchor="middle" x="357.0936" y="-771.2" font-family="Helvetica,sans-Serif" font-size="11.00" fill="#000000">pi</text>
</g>
<!-- p5&#45;&gt;p20 -->
<g id="edge35" class="edge">
<title>p5&#45;&gt;p20</title>
<path fill="none" stroke="#8c8c8c" d="M293.106,-793.6221C303.7029,-790.3725 316.2578,-786.5225 327.4279,-783.0972"/>
<polygon fill="#8c8c8c" stroke="#8c8c8c" points="328.1834,-784.696 332.4506,-781.5569 327.1572,-781.3498 328.1834,-784.696"/>
</g>
<!-- p21 -->
<g id="node23" class="node">
<title>p21</title>
<ellipse fill="#ffffff" stroke="#000000" cx="357.0936" cy="-720" rx="27" ry="18"/>
<text text-anchor="middle" x="357.0936" y="-717.2" font-family="Helvetica,sans-Serif" font-size="11.00" fill="#000000">pi</text>
</g>
<!-- p5&#45;&gt;p21 -->
<g id="edge36" class="edge">
<title>p5&#45;&gt;p21</title>
<path fill="none" stroke="#8c8c8c" d="M287.7193,-783.822C302.2076,-770.4932 322.253,-752.0522 337.0721,-738.4191"/>
<polygon fill="#8c8c8c" stroke="#8c8c8c" points="338.6095,-739.3827 341.1044,-734.7096 336.2398,-736.8069 338.6095,-739.3827"/>
</g>
<!-- p22 -->
<g id="node24" class="node">
<title>p22</title>
<ellipse fill="#ffffff" stroke="#000000" cx="357.0936" cy="-666" rx="27" ry="18"/>
<text text-anchor="middle" x="357.0936" y="-663.2" font-family="Helvetica,sans-Serif" font-size="11.00" fill="#000000">pi</text>
</g>
<!-- p5&#45;&gt;p22 -->
<g id="edge37" class="edge">
<title>p5&#45;&gt;p22</title>
<path fill="none" stroke="#8c8c8c" d="M279.7728,-777.9764C290.8401,-755.3225 309.3704,-720.2636 330.0936,-693 332.3,-690.0973 334.8045,-687.1956 337.3774,-684.4285"/>
<polygon fill="#8c8c8c" stroke="#8c8c8c" points="338.707,-685.5703 340.9064,-680.751 336.1817,-683.1469 338.707,-685.5703"/>
</g>
<!-- p23 -->
<g id="node25" class="node">
<title>p23</title>
<ellipse fill="#ffffff" stroke="#000000" cx="357.0936" cy="-612" rx="27" ry="18"/>
<text text-anchor="middle" x="357.0936" y="-609.2" font-family="Helvetica,sans-Serif" font-size="11.00" fill="#000000">nu</text>
</g>
<!-- p6&#45;&gt;p23 -->
<g id="edge38" class="edge">
<title>p6&#45;&gt;p23</title>
<path fill="none" stroke="#8c8c8c" d="M293.106,-592.3779C303.7029,-595.6275 316.2578,-599.4775 327.4279,-602.9028"/>
<polygon fill="#8c8c8c" stroke="#8c8c8c" points="327.1572,-604.6502 332.4506,-604.4431 328.1834,-601.304 327.1572,-604.6502"/>
</g>
<!-- p24 -->
<g id="node26" class="node">
<title>p24</title>
<ellipse fill="#ffffff" stroke="#000000" cx="357.0936" cy="-558" rx="27" ry="18"/>
<text text-anchor="middle" x="357.0936" y="-555.2" font-family="Helvetica,sans-Serif" font-size="11.00" fill="#000000">pi0</text>
</g>
<!-- p6&#45;&gt;p24 -->
<g id="edge39" class="edge">
<title>p6&#45;&gt;p24</title>
<path fill="none" stroke="#8c8c8c" d="M293.106,-577.6221C303.7029,-574.3725 316.2578,-570.5225 327.4279,-567.0972"/>
<polygon fill="#8c8c8c" stroke="#8c8c8c" points="328.1834,-568.696 332.4506,-565.5569 327.1572,-565.3498 328.1834,-568.696"/>
</g>
<!-- p25 -->
<g id="node27" class="node">
<title>p25</title>
<ellipse fill="#ffffff" stroke="#000000" cx="357.0936" cy="-504" rx="27" ry="18"/>
<text text-anchor="middle" x="357.0936" y="-501.2" font-family="Helvetica,sans-Serif" font-size="11.00" fill="#000000">pi</text>
</g>
<!-- p6&#45;&gt;p25 -->
<g id="edge40" class="edge">
<title>p6&#45;&gt;p25</title>
<path fill="none" stroke="#8c8c8c" d="M287.7193,-567.822C302.2076,-554.4932 322.253,-536.0522 337.0721,-522.4191"/>
<polygon fill="#8c8c8c" stroke="#8c8c8c" points="338.6095,-523.3827 341.1044,-518.7096 336.2398,-520.8069 338.6095,-523.3827"/>
</g>
<!-- p26 -->
<g id="node28" class="node">
<title>p26</title>
<ellipse fill="#ffffff" stroke="#000000" cx="357.0936" cy="-450" rx="27" ry="18"/>
<text text-anchor="middle" x="357.0936" y="-447.2" font-family="Helvetica,sans-Serif" font-size="11.00" fill="#000000">nu</text>
</g>
<!-- p7&#45;&gt;p26 -->
<g id="edge41" class="edge">
<title>p7&#45;&gt;p26</title>
<path fill="none" stroke="#8c8c8c" d="M293.106,-430.3779C303.7029,-433.6275 316.2578,-437.4775 327.4279,-440.9028"/>
<polygon fill="#8c8c8c" stroke="#8c8c8c" points="327.1572,-442.6502 332.4506,-442.4431 328.1834,-439.304 327.1572,-442.6502"/>
</g>
<!-- p27 -->
<g id="node29" class="node">
<title>p27</title>
<ellipse fill="#ffffff" stroke="#000000" cx="357.0936" cy="-396" rx="27" ry="18"/>
<text text-anchor="middle" x="357.0936" y="-393.2" font-family="Helvetica,sans-Serif" font-size="11.00" fill="#000000">mu</text>
</g>
<!-- p7&#45;&gt;p27 -->
<g id="edge42" class="edge">
<title>p7&#45;&gt;p27</title>
<path fill="none" stroke="#8c8c8c" d="M293.106,-415.6221C303.7029,-412.3725 316.2578,-408.5225 327.4279,-405.0972"/>
<polygon fill="#8c8c8c" stroke="#8c8c8c" points="328.1834,-406.696 332.4506,-403.5569 327.1572,-403.3498 328.1834,-406.696"/>
</g>
<!-- p28 -->
<g id="node30" class="node">
<title>p28</title>
<ellipse fill="#ffffff" stroke="#000000" cx="357.0936" cy="-342" rx="27" ry="18"/>
<text text-anchor="middle" x="357.0936" y="-339.2" font-family="Helvetica,sans-Serif" font-size="11.00" fill="#000000">nu</text>
</g>
<!-- p7&#45;&gt;p28 -->
<g id="edge43" class="edge">
<title>p7&#45;&gt;p28</title>
<path fill="none" stroke="#8c8c8c" d="M287.7193,-405.822C302.2076,-392.4932 322.253,-374.0522 337.0721,-360.4191"/>
<polygon fill="#8c8c8c" stroke="#8c8c8c" points="338.6095,-361.3827 341.1044,-356.7096 336.2398,-358.8069 338.6095,-361.3827"/>
</g>
<!-- p29 -->
<g id="node31" class="node">
<title>p29</title>
<ellipse fill="#ffffff" stroke="#000000" cx="357.0936" cy="-288" rx="27" ry="18"/>
<text text-anchor="middle" x="357.0936" y="-285.2" font-family="Helvetica,sans-Serif" font-size="11.00" fill="#000000">nu</text>
</g>
<!-- p8&#45;&gt;p29 -->
<g id="edge44" class="edge">
<title>p8&#45;&gt;p29</title>
<path fill="none" stroke="#8c8c8c" d="M294.5136,-288C303.942,-288 314.7603,-288 324.7211,-288"/>
<polygon fill="#8c8c8c" stroke="#8c8c8c" points="324.84,-289.7501 329.8399,-288 324.8399,-286.2501 324.84,-289.7501"/>
</g>
<!-- p30 -->
<g id="node32" class="node">
<title>p30</title>
<ellipse fill="#ffffff" stroke="#000000" cx="357.0936" cy="-234" rx="27" ry="18"/>
<text text-anchor="middle" x="357.0936" y="-231.2" font-family="Helvetica,sans-Serif" font-size="11.00" fill="#000000">pi</text>
</g>
<!-- p8&#45;&gt;p30 -->
<g id="edge45" class="edge">
<title>p8&#45;&gt;p30</title>
<path fill="none" stroke="#8c8c8c" d="M290.8112,-274.6517C303.5303,-266.8509 319.6134,-256.987 332.7516,-248.9292"/>
<polygon fill="#8c8c8c" stroke="#8c8c8c" points="333.7379,-250.3773 337.0852,-246.2714 331.908,-247.3937 333.7379,-250.3773"/>
</g>
<!-- p38 -->
<g id="node40" class="node">
<title>p38</title>
<ellipse fill="#ffffff" stroke="#000000" cx="357.0936" cy="-180" rx="27" ry="18"/>
<text text-anchor="middle" x="357.0936" y="-177.2" font-family="Helvetica,sans-Serif" font-size="11.00" fill="#000000">nu</text>
</g>
<!-- p9&#45;&gt;p38 -->
<g id="edge46" class="edge">
<title>p9&#45;&gt;p38</title>
<path fill="none" stroke="#8c8c8c" d="M290.8112,-139.3483C303.5303,-147.1491 319.6134,-157.013 332.7516,-165.0708"/>
<polygon fill="#8c8c8c" stroke="#8c8c8c" points="331.908,-166.6063 337.0852,-167.7286 333.7379,-163.6227 331.908,-166.6063"/>
</g>
<!-- p39 -->
<g id="node41" class="node">
<title>p39</title>
<ellipse fill="#ffffff" stroke="#000000" cx="357.0936" cy="-126" rx="27" ry="18"/>
<text text-anchor="middle" x="357.0936" y="-123.2" font-family="Helvetica,sans-Serif" font-size="11.00" fill="#000000">pi</text>
</g>
<!-- p9&#45;&gt;p39 -->
<g id="edge47" class="edge">
<title>p9&#45;&gt;p39</title>
<path fill="none" stroke="#8c8c8c" d="M294.5136,-126C303.942,-126 314.7603,-126 324.7211,-126"/>
<polygon fill="#8c8c8c" stroke="#8c8c8c" points="324.84,-127.7501 329.8399,-126 324.8399,-124.2501 324.84,-127.7501"/>
</g>
<!-- p40 -->
<g id="node42" class="node">
<title>p40</title>
<ellipse fill="#ffffff" stroke="#000000" cx="357.0936" cy="-72" rx="27" ry="18"/>
<text text-anchor="middle" x="357.0936" y="-69.2" font-family="Helvetica,sans-Serif" font-size="11.00" fill="#000000">pi</text>
</g>
<!-- p9&#45;&gt;p40 -->
<g id="edge48" class="edge">
<title>p9&#45;&gt;p40</title>
<path fill="none" stroke="#8c8c8c" d="M290.8112,-112.6517C303.5303,-104.8509 319.6134,-94.987 332.7516,-86.9292"/>
<polygon fill="#8c8c8c" stroke="#8c8c8c" points="333.7379,-88.3773 337.0852,-84.2714 331.908,-85.3937 333.7379,-88.3773"/>
</g>
<!-- p41 -->
<g id="node43" class="node">
<title>p41</title>
<ellipse fill="#ffffff" stroke="#000000" cx="357.0936" cy="-18" rx="27" ry="18"/>
<text text-anchor="middle" x="357.0936" y="-15.2" font-family="Helvetica,sans-Serif" font-size="11.00" fill="#000000">pi</text>
</g>
<!-- p9&#45;&gt;p41 -->
<g id="edge49" class="edge">
<title>p9&#45;&gt;p41</title>
<path fill="none" stroke="#8c8c8c" d="M283.345,-105.4165C295.2632,-88.6676 312.9951,-64.6682 330.0936,-45 332.5455,-42.1796 335.2269,-39.292 337.9178,-36.5037"/>
<polygon fill="#8c8c8c" stroke="#8c8c8c" points="339.32,-37.5732 341.5724,-32.7785 336.8216,-35.1221 339.32,-37.5732"/>
</g>
<!-- p42 -->
<g id="node44" class="node">
<title>p42</title>
<ellipse fill="#ffffff" stroke="#000000" cx="447.0936" cy="-1098" rx="27" ry="18"/>
<text text-anchor="middle" x="447.0936" y="-1095.2" font-family="Helvetica,sans-Serif" font-size="11.00" fill="#000000">K0L</text>
</g>
<!-- p14&#45;&gt;p42 -->
<g id="edge18" class="edge">
<title>p14&#45;&gt;p42</title>
<path fill="none" stroke="#8c8c8c" d="M384.0966,-1098C393.7086,-1098 404.6322,-1098 414.6527,-1098"/>
<polygon fill="#8c8c8c" stroke="#8c8c8c" points="414.7987,-1099.7501 419.7987,-1098 414.7986,-1096.2501 414.7987,-1099.7501"/>
</g>
<!-- p43 -->
<g id="node45" class="node">
<title>p43</title>
<ellipse fill="#ffffff" stroke="#000000" cx="447.0936" cy="-855" rx="27" ry="18"/>
<text text-anchor="middle" x="447.0936" y="-852.2" font-family="Helvetica,sans-Serif" font-size="11.00" fill="#000000">gam</text>
</g>
<!-- p19&#45;&gt;p43 -->
<g id="edge19" class="edge">
<title>p19&#45;&gt;p43</title>
<path fill="none" stroke="#8c8c8c" d="M382.1637,-835.521C393.1773,-838.8251 406.1868,-842.728 417.6576,-846.1692"/>
<polygon fill="#8c8c8c" stroke="#8c8c8c" points="417.1771,-847.852 422.4691,-847.6126 418.1829,-844.4996 417.1771,-847.852"/>
</g>
<!-- p44 -->
<g id="node46" class="node">
<title>p44</title>
<ellipse fill="#ffffff" stroke="#000000" cx="447.0936" cy="-801" rx="27" ry="18"/>
<text text-anchor="middle" x="447.0936" y="-798.2" font-family="Helvetica,sans-Serif" font-size="11.00" fill="#000000">gam</text>
</g>
<!-- p19&#45;&gt;p44 -->
<g id="edge20" class="edge">
<title>p19&#45;&gt;p44</title>
<path fill="none" stroke="#8c8c8c" d="M382.1637,-820.479C393.1773,-817.1749 406.1868,-813.272 417.6576,-809.8308"/>
<polygon fill="#8c8c8c" stroke="#8c8c8c" points="418.1829,-811.5004 422.4691,-808.3874 417.1771,-808.148 418.1829,-811.5004"/>
</g>
<!-- p45 -->
<g id="node47" class="node">
<title>p45</title>
<ellipse fill="#ffffff" stroke="#000000" cx="447.0936" cy="-585" rx="27" ry="18"/>
<text text-anchor="middle" x="447.0936" y="-582.2" font-family="Helvetica,sans-Serif" font-size="11.00" fill="#000000">gam</text>
</g>
<!-- p24&#45;&gt;p45 -->
<g id="edge24" class="edge">
<title>p24&#45;&gt;p45</title>
<path fill="none" stroke="#8c8c8c" d="M382.1637,-565.521C393.1773,-568.8251 406.1868,-572.728 417.6576,-576.1692"/>
<polygon fill="#8c8c8c" stroke="#8c8c8c" points="417.1771,-577.852 422.4691,-577.6126 418.1829,-574.4996 417.1771,-577.852"/>
</g>
<!-- p46 -->
<g id="node48" class="node">
<title>p46</title>
<ellipse fill="#ffffff" stroke="#000000" cx="447.0936" cy="-531" rx="27" ry="18"/>
<text text-anchor="middle" x="447.0936" y="-528.2" font-family="Helvetica,sans-Serif" font-size="11.00" fill="#000000">gam</text>
</g>
<!-- p24&#45;&gt;p46 -->
<g id="edge25" class="edge">
<title>p24&#45;&gt;p46</title>
<path fill="none" stroke="#8c8c8c" d="M382.1637,-550.479C393.1773,-547.1749 406.1868,-543.272 417.6576,-539.8308"/>
<polygon fill="#8c8c8c" stroke="#8c8c8c" points="418.1829,-541.5004 422.4691,-538.3874 417.1771,-538.148 418.1829,-541.5004"/>
</g>
<!-- p47 -->
<g id="node49" class="node">
<title>p47</title>
<ellipse fill="#ffffff" stroke="#000000" cx="447.0936" cy="-1449" rx="27" ry="18"/>
<text text-anchor="middle" x="447.0936" y="-1446.2" font-family="Helvetica,sans-Serif" font-size="11.00" fill="#000000">gam</text>
</g>
<!-- p32&#45;&gt;p47 -->
<g id="edge29" class="edge">
<title>p32&#45;&gt;p47</title>
<path fill="none" stroke="#8c8c8c" d="M382.1637,-1429.521C393.1773,-1432.8251 406.1868,-1436.728 417.6576,-1440.1692"/>
<polygon fill="#8c8c8c" stroke="#8c8c8c" points="417.1771,-1441.852 422.4691,-1441.6126 418.1829,-1438.4996 417.1771,-1441.852"/>
</g>
<!-- p48 -->
<g id="node50" class="node">
<title>p48</title>
<ellipse fill="#ffffff" stroke="#000000" cx="447.0936" cy="-1395" rx="27" ry="18"/>
<text text-anchor="middle" x="447.0936" y="-1392.2" font-family="Helvetica,sans-Serif" font-size="11.00" fill="#000000">gam</text>
</g>
<!-- p32&#45;&gt;p48 -->
<g id="edge30" class="edge">
<title>p32&#45;&gt;p48</title>
<path fill="none" stroke="#8c8c8c" d="M382.1637,-1414.479C393.1773,-1411.1749 406.1868,-1407.272 417.6576,-1403.8308"/>
<polygon fill="#8c8c8c" stroke="#8c8c8c" points="418.1829,-1405.5004 422.4691,-1402.3874 417.1771,-1402.148 418.1829,-1405.5004"/>
</g>
</g>
</svg>
